<svg xmlns="http://www.w3.org/2000/svg" viewBox="0 0 24 24"><style>.st0{fill:#c9c9c9}</style><g id="Camada_2"><path class="st0" d="M9 18H7.5c-.28 0-.5-.22-.5-.5v-11c0-.28.22-.5.5-.5H9c.55 0 1-.45 1-1s-.45-1-1-1H3c-.55 0-1 .45-1 1s.45 1 1 1h1.5c.28 0 .5.22.5.5v11c0 .28-.22.5-.5.5H3c-.55 0-1 .45-1 1s.45 1 1 1h6c.55 0 1-.45 1-1s-.45-1-1-1z"/><path class="st0" d="M3.01 16V8H2c-1.1 0-2 .9-2 2v4c0 1.1.9 2 2 2h1.01zM22 8H8.99v8H22c1.1 0 2-.9 2-2v-4c0-1.1-.9-2-2-2zm-8 6c-1.1 0-2-.9-2-2s.9-2 2-2 2 .9 2 2-.9 2-2 2zm6 0c-1.1 0-2-.9-2-2s.9-2 2-2 2 .9 2 2-.9 2-2 2z"/></g></svg>