<svg xmlns="http://www.w3.org/2000/svg" viewBox="0 0 24 24"><style>.st0{fill:#c9c9c9}</style><path class="st0" d="M20 0H4C1.8 0 0 1.8 0 4v16c0 2.2 1.8 4 4 4h16c2.2 0 4-1.8 4-4V4c0-2.2-1.8-4-4-4zm0 6.97V11c0 .55-.45 1-1 1h-2c-.55 0-1-.45-1-1V8.5c0-.28-.22-.5-.5-.5h.5v-.03h-2v7.53c0 .28.22.5.5.5h.5c.55 0 1 .45 1 1v2c0 .55-.45 1-1 1H9c-.55 0-1-.45-1-1v-2c0-.55.45-1 1-1h.5c.28 0 .5-.22.5-.5V7.97H8V8h.5c-.28 0-.5.22-.5.5v2.6c0 .55-.45 1-1 1H5c-.55 0-1-.45-1-1V5c0-.55.45-1 1-1h14c.55 0 1 .45 1 1v1.97z" id="Camada_2"/></svg>