<svg xmlns="http://www.w3.org/2000/svg" viewBox="0 0 24 24"><style>.st0{fill:#c9c9c9}</style><g id="Camada_2"><path class="st0" d="M11.33 14.5v.83c0 .92.75 1.67 1.67 1.67.46 0 .88-.19 1.18-.49l3.33-3.33c.3-.3.49-.72.49-1.18s-.19-.88-.49-1.18l-3.33-3.33c-.31-.3-.73-.49-1.19-.49-.92 0-1.67.75-1.67 1.67v.83H1c-.55 0-1 .45-1 1v3.01c0 .55.45 1 1 1h10.33z"/><path class="st0" d="M20 0H10C7.8 0 6 1.8 6 4v3.5h3.52c.49-1.45 1.86-2.5 3.47-2.5.98 0 1.9.38 2.59 1.07l3.33 3.33c.69.69 1.07 1.61 1.07 2.59 0 .98-.38 1.9-1.07 2.59l-3.33 3.33c-.69.71-1.61 1.09-2.59 1.09-1.61 0-2.99-1.05-3.47-2.5H6V20c0 2.2 1.8 4 4 4h10c2.2 0 4-1.8 4-4V4c0-2.2-1.8-4-4-4z"/></g></svg>