<svg xmlns="http://www.w3.org/2000/svg" viewBox="0 0 24 24"><style>.st0{fill:#c9c9c9}</style><g id="Camada_2"><path class="st0" d="M23.72 16.25h-2.43c-.28 0-.44-.22-.36-.48l1.15-4.04c.08-.26-.09-.48-.36-.48h-3c-.28 0-.56.22-.64.48l-1.73 6.04c-.08.26.09.48.36.48h1.75c.27 0 .47.22.44.5l-.05.39-.58 4.62c-.02.16.01.24.06.24.04 0 .1-.05.17-.14l5.4-7.2c.18-.23.09-.41-.18-.41z"/><path class="st0" d="M16.16 11.18c.32-1.12 1.4-1.93 2.56-1.93h3c.34 0 .67.08.97.21A5.977 5.977 0 0 0 18 7.2c-.2 0-.39.04-.59.06A7.157 7.157 0 0 0 12 4.8c-3.15 0-5.82 2.02-6.8 4.84-.13-.01-.26-.04-.4-.04a4.801 4.801 0 0 0 0 9.6h9.94c-.39-.58-.51-1.29-.31-1.98l1.73-6.04zM14 12.5h-.5v3c0 .55-.45 1-1 1h-1c-.55 0-1-.45-1-1v-3H10a1.003 1.003 0 0 1-.71-1.71l2-2c.18-.18.43-.29.71-.29s.53.11.71.29l2 2A1.003 1.003 0 0 1 14 12.5z"/></g></svg>