<svg xmlns="http://www.w3.org/2000/svg" viewBox="0 0 24 24"><style>.st0{fill:#c9c9c9}</style><g id="Camada_2"><path class="st0" d="M18 14V4c0-2.2-1.8-4-4-4H4C1.8 0 0 1.8 0 4v10c0 2.2 1.8 4 4 4h10c2.2 0 4-1.8 4-4zm-10.3-.29c-.1.1-.21.17-.33.22-.24.1-.51.1-.75 0-.12-.05-.23-.12-.33-.22l-4-3.99c-.39-.39-.39-1.03 0-1.42a.996.996 0 0 1 1.41 0L7 11.59l7.3-7.3a.996.996 0 0 1 1.41 0c.39.39.39 1.03 0 1.41L7.7 13.71z"/><path class="st0" d="M22 8h-2v6c0 3.31-2.69 6-6 6H8v2a2 2 0 0 0 2 2h10c2.21 0 4-1.79 4-4V10c0-1.11-.89-2-2-2z"/></g></svg>