<svg xmlns="http://www.w3.org/2000/svg" viewBox="0 0 24 24"><style>.st0{fill:#c9c9c9}</style><g id="Camada_2"><path class="st0" d="M22 0H2C.9 0 0 .9 0 2v2c0 1.1.9 2 2 2h20c1.1 0 2-.9 2-2V2c0-1.1-.9-2-2-2zM21.19 8.71C20.8 8.32 20.03 8 19.48 8H.53c-.55 0-.68.32-.29.71l2.59 2.59c.39.38 1.15.7 1.7.7h18.95c.55 0 .68-.32.29-.71l-2.58-2.58zM4.53 14c-.55 0-1.32.32-1.71.71L.23 17.3c-.38.38-.25.7.3.7h18.95c.55 0 1.32-.32 1.71-.71l2.59-2.59c.39-.39.26-.71-.29-.71H4.53zM21.18 20.71c-.39-.39-1.16-.71-1.71-.71H.53c-.55 0-.68.32-.29.71l2.59 2.59c.38.38 1.15.7 1.7.7h18.95c.55 0 .68-.32.29-.71l-2.59-2.58z"/></g></svg>