<svg xmlns="http://www.w3.org/2000/svg" viewBox="0 0 24 24"><style>.st0{fill:#c9c9c9}</style><g id="Camada_2"><path class="st0" d="M20 0H4C1.8 0 0 1.8 0 4v16c0 2.2 1.8 4 4 4h12.29c-.01-.16-.02-.31.01-.49l.41-3.26c-.38 0-.74-.09-1.07-.25H5c-.55 0-1-.45-1-1v-2c0-.55.45-1 1-1h9.78l.57-2H4.8c-.44 0-.8-.45-.8-1v-2c0-.55.36-1 .8-1h12.09c.49-.46 1.14-.75 1.83-.75h3c.76 0 1.46.34 1.91.94.18.24.3.51.37.79V4c0-2.2-1.8-4-4-4zm-.05 7c0 .55-.45 1-1 1H5c-.55 0-1-.45-1-1V5c0-.55.45-1 1-1h13.95c.55 0 1 .45 1 1v2z"/><path class="st0" d="M23.72 16.25h-2.43c-.27 0-.44-.22-.36-.48l1.15-4.04c.08-.26-.09-.48-.36-.48h-3c-.27 0-.56.22-.64.48l-1.73 6.04c-.08.26.09.48.36.48h1.75c.28 0 .47.22.44.5l-.63 5.01c-.03.27.07.32.24.1l5.4-7.2c.17-.23.08-.41-.19-.41z"/></g></svg>