<svg xmlns="http://www.w3.org/2000/svg" viewBox="0 0 24 24"><style>.st0{fill:#c9c9c9}</style><path class="st0" d="M12 0C5.37 0 0 5.37 0 12s5.37 12 12 12 12-5.37 12-12S18.63 0 12 0zM9 7.8c0-1.15.71-2.15 1.7-2.57a1.85 1.85 0 0 1-.58-1.35C10.13 2.84 10.96 2 12 2a1.867 1.867 0 0 1 1.29 3.22c1 .43 1.7 1.42 1.7 2.57v.5c.01.39-.31.71-.69.71H9.7c-.38 0-.7-.32-.7-.7v-.5zM3.5 12c0-3.02 1.63-5.83 4.25-7.35.24-.14.54-.06.68.18s.06.54-.18.68A7.538 7.538 0 0 0 4.5 12c0 .28-.22.5-.5.5s-.5-.22-.5-.5zm6.5 6.3c0 .39-.32.7-.7.7H4.7c-.39 0-.7-.32-.7-.7v-.5c0-1.15.71-2.15 1.7-2.57a1.85 1.85 0 0 1-.58-1.35C5.12 12.84 5.96 12 7 12a1.867 1.867 0 0 1 1.29 3.22c1 .43 1.7 1.42 1.7 2.57v.51zm3.07 2.13c-.36.05-.72.07-1.07.07-.34 0-.7-.02-1.06-.07a.503.503 0 0 1-.43-.56c.04-.28.29-.47.56-.43.61.08 1.26.08 1.87 0 .27-.04.53.16.56.43a.51.51 0 0 1-.43.56zM20 18.3c0 .39-.32.7-.7.7h-4.6c-.39 0-.7-.32-.7-.7v-.5c0-1.15.71-2.15 1.7-2.57a1.867 1.867 0 0 1 1.29-3.22 1.867 1.867 0 0 1 1.29 3.22c1 .43 1.7 1.42 1.7 2.57v.5zm0-5.8c-.28 0-.5-.22-.5-.5 0-2.66-1.44-5.15-3.75-6.49a.493.493 0 0 1-.18-.68c.14-.24.45-.32.68-.18A8.525 8.525 0 0 1 20.5 12c0 .28-.22.5-.5.5z" id="Camada_2"/></svg>