<svg id="Camada_1" xmlns="http://www.w3.org/2000/svg" viewBox="0 0 24 24"><style>.st0{fill:#c9c9c9}</style><path class="st0" d="M20 0H4C1.8 0 0 1.8 0 4v16c0 2.2 1.8 4 4 4h16c2.2 0 4-1.8 4-4V4c0-2.2-1.8-4-4-4zm-8 19c0 .5-.5 1-1 1H5c-.5 0-1-.5-1-1v-8c0-.5.5-1 1-1h6c.5 0 1 .5 1 1v8zm8 0c0 .5-.5 1-1 1h-4c-.5 0-1-.5-1-1v-2c0-.5.5-1 1-1h4c.5 0 1 .5 1 1v2zm0-6c0 .5-.5 1-1 1h-4c-.5 0-1-.5-1-1v-2c0-.5.5-1 1-1h4c.5 0 1 .5 1 1v2zm0-6c0 .5-.5 1-1 1H5c-.5 0-1-.5-1-1V5c0-.5.5-1 1-1h14c.5 0 1 .5 1 1v2z"/></svg>