<svg xmlns="http://www.w3.org/2000/svg" viewBox="0 0 24 24"><style>.st0{fill:#c9c9c9}</style><g id="Camada_2"><path class="st0" d="M20 10H4c-2.2 0-4 1.8-4 4v6c0 2.2 1.8 4 4 4h16c2.2 0 4-1.8 4-4v-6c0-2.2-1.8-4-4-4zm-1 10H5c-.55 0-1-.45-1-1s.45-1 1-1h14c.55 0 1 .45 1 1s-.45 1-1 1zm0-4H5c-.55 0-1-.45-1-1s.45-1 1-1h14c.55 0 1 .45 1 1s-.45 1-1 1zM4 8h16c2.2 0 4-1.8 4-4s-1.8-4-4-4H4C1.8 0 0 1.8 0 4s1.8 4 4 4zm10.69-5.66c.18-.18.42-.27.66-.31V2h3.48a1.17 1.17 0 0 1 .83 2L18 5.66c-.46.46-1.2.46-1.66 0L14.69 4a1.17 1.17 0 0 1 0-1.66z"/></g></svg>