<svg xmlns="http://www.w3.org/2000/svg" viewBox="0 0 24 24"><style>.st0{fill:#c9c9c9}</style><g id="Camada_2"><path class="st0" d="M8.73 10.11a.405.405 0 0 0-.56 0l-2.92 2.92-1.32-1.32a.405.405 0 0 0-.56 0l-.01.01c-.15.15-.15.4 0 .56l1.61 1.61c.15.15.4.15.56 0l3.21-3.21c.15-.16.15-.41-.01-.57z"/><path class="st0" d="M20 4H4C1.79 4 0 5.79 0 8v8c0 2.21 1.79 4 4 4h16c2.21 0 4-1.79 4-4V8c0-2.21-1.79-4-4-4zM10 15c0 .55-.45 1-1 1H3c-.55 0-1-.45-1-1V9c0-.55.45-1 1-1h6c.55 0 1 .45 1 1v6zm2-6.5c0-.08.02-.13.04-.18l.03-.03c.02-.02.04-.04.07-.04h.04c.05.01.11.03.17.09 0 0 .01 0 .01.01l.66.66a4.991 4.991 0 0 1 3.63-1.99c-.09.15-.15.31-.15.48v1.56c-.87.15-1.61.65-2.05 1.38l1.2 1.2c.09.1.12.18.1.25 0 0-.01 0-.01.01-.01.03-.04.05-.08.07a.35.35 0 0 1-.16.03h-3a.5.5 0 0 1-.47-.33.508.508 0 0 1-.03-.17v-3zm4.91 8.27c-.01.01-.01.02-.02.03-.09.12-.23.2-.39.2h-3c-.27 0-.34-.16-.15-.35l.66-.66a4.959 4.959 0 0 1-1.99-3.63c.14.08.3.14.48.14h1.57c.15.87.65 1.61 1.38 2.05l1.2-1.2c.19-.19.35-.12.35.15v3c0 .1-.04.19-.09.27zm.44-6.12c-.06.06-.12.09-.17.09h-.04c-.03 0-.05-.02-.07-.04l-.03-.03a.353.353 0 0 1-.04-.17v-3c0-.22.15-.4.34-.47.05-.01.1-.03.16-.03h3c.08 0 .13.01.17.04.11.06.11.18-.03.32l-.67.67c1.11.84 1.87 2.13 1.98 3.61-.14-.07-.29-.13-.46-.13h-1.55c-.15-.87-.67-1.61-1.39-2.06l-1.2 1.2zM22 15.5c0 .28-.16.34-.35.15l-.67-.67a4.969 4.969 0 0 1-3.61 1.99c.08-.14.13-.3.13-.46v-1.55c.87-.15 1.61-.67 2.06-1.39l-1.2-1.2c-.2-.21-.13-.37.14-.37h3c.1 0 .19.04.27.09.01.01.02.01.04.02.08.06.13.13.17.23.02.05.03.1.03.16v3z"/></g></svg>