<svg xmlns="http://www.w3.org/2000/svg" viewBox="0 0 24 24"><style>.st0{fill:#c9c9c9}</style><g id="Camada_2"><path class="st0" d="M18 4h-2c0-2.21-1.79-4-4-4S8 1.79 8 4H6C3.8 4 2 5.8 2 8v12c0 2.2 1.8 4 4 4h12c2.2 0 4-1.8 4-4V8c0-2.2-1.8-4-4-4zm-6-2c1.1 0 2 .9 2 2h-4c0-1.1.9-2 2-2zm8 18c0 1.1-.9 2-2 2H6c-1.1 0-2-.9-2-2V8c0-1.1.9-2 2-2h2v1.05c0 .52.43.95.95.95h6.11c.51 0 .94-.43.94-.95V6h2c1.1 0 2 .9 2 2v12z"/><path class="st0" d="M17 10H7c-.55 0-1 .45-1 1s.45 1 1 1h10c.55 0 1-.45 1-1s-.45-1-1-1zM17 14H7c-.55 0-1 .45-1 1s.45 1 1 1h10c.55 0 1-.45 1-1s-.45-1-1-1zM17 18H7c-.55 0-1 .45-1 1s.45 1 1 1h10c.55 0 1-.45 1-1s-.45-1-1-1z"/></g></svg>