<svg xmlns="http://www.w3.org/2000/svg" viewBox="0 0 24 24"><style>.st0{fill:#c9c9c9}</style><g id="Camada_2"><path class="st0" d="M20 2h-1V.98c0-.54-.44-.98-.98-.98h-2.04c-.54 0-.98.44-.98.98V2H9V.98C9 .44 8.56 0 8.02 0H5.98C5.44 0 5 .44 5 .98V2H4C1.8 2 0 3.8 0 6v14c0 2.2 1.8 4 4 4h16c2.2 0 4-1.8 4-4V6c0-2.2-1.8-4-4-4zm-8 17c-3.31 0-6-2.69-6-6s2.69-6 6-6 6 2.69 6 6-2.69 6-6 6z"/><path class="st0" d="M14.05 12.5H12.5V9.45c0-.25-.2-.45-.45-.45h-.11c-.24 0-.44.2-.44.45v3.61c0 .25.2.45.45.45h2.11c.25 0 .45-.2.45-.45v-.11a.463.463 0 0 0-.46-.45z"/></g></svg>