<svg xmlns="http://www.w3.org/2000/svg" viewBox="0 0 24 24"><style>.st0{fill:#c9c9c9}</style><path class="st0" d="M20.04 0H3.96c-2.2 0-4 1.8-4 4v16c0 2.2 1.8 4 4 4h16.09c2.2 0 4-1.8 4-4V4c-.01-2.2-1.81-4-4.01-4zM3.75 4.89c.06-.05.17-.11.33-.19.24-.11.42-.22.57-.35s.27-.26.38-.41.17-.25.21-.28.1-.05.19-.05c.1 0 .19.04.25.12s.09.19.09.33v3.35c0 .39-.14.59-.4.59-.12 0-.22-.04-.29-.12s-.11-.2-.11-.35V4.86c-.5.38-.83.57-1 .57-.08 0-.16-.03-.22-.1s-.1-.14-.1-.22c0-.1.04-.18.1-.22zm2.66 14.26c-.07.17-.18.31-.31.44s-.3.23-.49.3c-.2.08-.41.11-.64.11-.23 0-.44-.04-.63-.13s-.34-.18-.46-.31-.21-.26-.27-.39a.863.863 0 0 1-.09-.33c0-.11.04-.21.11-.27.07-.07.17-.1.27-.1.05 0 .11.02.16.05s.08.07.1.12c.1.27.21.47.33.6.12.13.28.2.49.2.12 0 .24-.03.35-.09s.21-.15.28-.26c.07-.12.11-.25.11-.41 0-.23-.06-.41-.19-.54s-.3-.21-.53-.21c-.04 0-.1 0-.18.01s-.13.01-.16.01c-.11 0-.19-.03-.25-.08s-.09-.13-.09-.22.04-.17.11-.23.17-.09.31-.09h.12c.18 0 .33-.05.46-.16s.2-.26.2-.45a.55.55 0 0 0-.58-.55c-.12 0-.22.02-.29.05s-.14.08-.18.13-.09.13-.13.21-.08.17-.11.24c-.02.04-.05.07-.11.1s-.11.04-.18.04c-.08 0-.15-.03-.21-.1a.317.317 0 0 1-.1-.25c0-.1.03-.21.09-.32.06-.11.15-.22.27-.32.12-.1.26-.18.44-.25s.37-.09.59-.09c.19 0 .36.03.52.08s.29.13.41.22.2.21.26.34.09.27.09.42c0 .2-.04.36-.13.5-.08.14-.21.28-.36.41.15.08.28.18.39.28.1.11.18.22.24.35s.08.27.08.42c0 .18-.04.35-.11.52zm.03-5.25c-.06.07-.16.1-.29.1H4c-.15 0-.26-.04-.34-.12s-.12-.18-.12-.29c0-.07.03-.16.08-.28s.11-.21.17-.27c.26-.27.49-.5.7-.69s.36-.32.45-.38c.16-.11.29-.23.4-.34.11-.11.19-.23.24-.35.06-.12.08-.24.08-.35a.64.64 0 0 0-.33-.57.742.742 0 0 0-.34-.08.66.66 0 0 0-.6.34c-.02.03-.05.11-.1.24s-.1.23-.16.3-.13.1-.25.1c-.1 0-.18-.03-.24-.1s-.1-.15-.1-.26c0-.13.03-.28.09-.42s.15-.28.27-.4c.12-.12.27-.22.46-.29.18-.07.4-.11.65-.11.3 0 .55.05.76.14.14.06.26.15.36.26s.18.24.24.38.09.29.09.45c0 .24-.06.46-.18.66s-.24.35-.37.47-.33.29-.63.53c-.29.24-.5.43-.61.56-.05.05-.09.12-.14.19h1.53c.15 0 .27.03.35.09s.12.15.12.25c.01.09-.02.17-.09.24zm13.6 4.11c0 .55-.45.99-.99.99H9.04c-.55 0-.99-.45-.99-.99V18c0-.55.45-.99.99-.99h10.01c.55 0 .99.45.99.99v.01zm0-6c0 .55-.45.99-.99.99H9.04c-.55 0-.99-.45-.99-.99V12c0-.55.45-.99.99-.99h10.01c.55 0 .99.45.99.99v.01zm0-6c0 .54-.44.99-.99.99H9.04a1 1 0 0 1-1-.99v-.02a1 1 0 0 1 1-.99h10.01c.55 0 .99.45.99.99v.02z" id="Camada_2"/></svg>