<svg xmlns="http://www.w3.org/2000/svg" viewBox="0 0 24 24"><style>.st0{fill:#c9c9c9}</style><g id="Camada_2"><path class="st0" d="M20 0H4C1.8 0 0 1.8 0 4v16c0 2.2 1.8 4 4 4h16c2.2 0 4-1.8 4-4V4c0-2.2-1.8-4-4-4zm0 16c0 1.1-.9 2-2 2H6c-1.1 0-2-.9-2-2V8c0-1.1.9-2 2-2h12c1.1 0 2 .9 2 2v8z"/><path class="st0" d="M15.94 10.89l-2.06-.3c-.28-.04-.61-.28-.73-.53l-.92-1.86c-.12-.25-.33-.25-.45 0l-.92 1.87c-.12.25-.45.49-.73.53l-2.06.3c-.28.04-.34.23-.14.43l1.49 1.45c.2.2.33.58.28.86l-.35 2.05c-.05.28.12.4.37.27l1.84-.97c.25-.13.65-.13.9 0l1.84.97c.25.13.41.01.37-.27l-.35-2.05c-.05-.28.08-.66.28-.86l1.49-1.45c.19-.2.12-.4-.15-.44z"/></g></svg>