<svg xmlns="http://www.w3.org/2000/svg" viewBox="0 0 24 24"><style>.st0{fill:#c9c9c9}</style><g id="Camada_2"><path class="st0" d="M20 2h-1V.98c0-.54-.44-.98-.98-.98h-2.04c-.54 0-.98.44-.98.98V2H9V.98C9 .44 8.56 0 8.02 0H5.98C5.44 0 5 .44 5 .98V2H4C1.8 2 0 3.8 0 6v14c0 2.2 1.8 4 4 4h16c2.2 0 4-1.8 4-4V6c0-2.2-1.8-4-4-4zm-6 12c0 1.1-.9 2-2 2H6c-1.1 0-2-.9-2-2V8c0-1.1.9-2 2-2h6c1.1 0 2 .9 2 2v6zm6 1c0 .55-.45 1-1 1h-2c-.55 0-1-.45-1-1v-2c0-.55.45-1 1-1h2c.55 0 1 .45 1 1v2zm0-6c0 .55-.45 1-1 1h-2c-.55 0-1-.45-1-1V7c0-.55.45-1 1-1h2c.55 0 1 .45 1 1v2z"/><path class="st0" d="M8.51 9.1c-.14-.15-.31-.26-.5-.33s-.41-.12-.64-.12c-.36 0-.66.09-.92.26-.25.17-.45.42-.58.75-.08.2-.13.44-.17.71-.04.28-.05.59-.05.93 0 .27.02.51.05.74.03.23.08.44.16.63.14.35.35.62.62.81.27.2.58.29.93.29.3 0 .57-.07.82-.22s.45-.35.6-.62c.12-.22.21-.46.25-.73.05-.27.07-.59.07-.96 0-.69-.09-1.22-.26-1.6-.11-.21-.23-.39-.38-.54zm-.38 3.14c-.05.27-.13.48-.25.63-.12.15-.28.22-.49.22a.6.6 0 0 1-.48-.21c-.12-.14-.2-.35-.25-.62-.05-.27-.08-.63-.08-1.05 0-.63.06-1.1.18-1.4.12-.3.33-.46.63-.46.21 0 .37.07.49.2.12.14.2.34.25.6.05.27.08.61.08 1.02-.01.44-.03.8-.08 1.07zM11.54 8.66c-.11 0-.18.02-.22.06-.04.04-.12.15-.25.33s-.27.34-.44.48-.39.28-.66.41c-.18.09-.31.16-.39.21-.07.05-.11.14-.11.26 0 .1.04.19.11.26s.16.11.25.11c.2 0 .59-.22 1.17-.67v3.11c0 .18.04.32.13.41.08.09.2.14.34.14.31 0 .47-.23.47-.69V9.19c0-.16-.04-.29-.11-.39a.37.37 0 0 0-.29-.14z"/></g></svg>