<svg xmlns="http://www.w3.org/2000/svg" viewBox="0 0 24 24"><style>.st0{fill:#c9c9c9}</style><g id="Camada_2"><path class="st0" d="M20.04 0H3.96c-2.2 0-4 1.8-4 4v16c0 2.2 1.8 4 4 4h16.09c2.2 0 4-1.8 4-4V4c-.01-2.2-1.81-4-4.01-4zM3.75 5.33a.321.321 0 0 1-.1-.22c0-.1.03-.17.09-.22s.18-.11.34-.19c.23-.11.42-.22.56-.35.14-.12.27-.26.38-.41s.18-.25.22-.28.1-.05.19-.05c.1 0 .19.04.25.12s.09.19.09.33v3.35c0 .39-.14.59-.4.59-.12 0-.22-.04-.29-.12s-.11-.2-.11-.35V4.86c-.5.38-.83.57-1 .57a.27.27 0 0 1-.22-.1zM20 18.01c0 .55-.45 1-1 1H5c-.55 0-1-.45-1-1V9.99c0-.55.45-1 1-1h14c.55 0 1 .45 1 1v8.02zm.04-12c0 .54-.44.99-.99.99H9.04a1 1 0 0 1-1-.99v-.02a1 1 0 0 1 1-.99h10.01c.55 0 .99.45.99.99v.02z"/><path class="st0" d="M10.99 13h5.98c.55 0 .99-.45.99-.99V12c0-.55-.45-.99-.99-.99h-5.98a.984.984 0 0 0-.99.98V12a1 1 0 0 0 .99 1zM17.01 15h-5.98c-.55 0-.99.45-.99.99V16c0 .55.45.99.99.99h5.98c.55 0 .99-.45.99-.99v-.01c0-.54-.45-.99-.99-.99zM6.3 11.69c.11 0 .34-.13.67-.38v1.78c0 .1.02.18.07.24.05.05.11.08.19.08.18 0 .27-.13.27-.39v-2.24c0-.09-.02-.17-.06-.22s-.1-.08-.17-.08c-.06 0-.1.01-.13.04s-.07.07-.14.18-.16.19-.25.28-.22.16-.38.23c-.11.05-.18.09-.22.12s-.06.08-.06.15a.204.204 0 0 0 .21.21zM7.7 16.87H6.68c.03-.05.06-.09.1-.13.07-.09.21-.21.4-.37s.34-.28.42-.35c.08-.08.17-.18.25-.31a.83.83 0 0 0-.1-.99.807.807 0 0 0-.24-.17c-.14-.06-.31-.09-.51-.09-.17 0-.31.02-.43.07s-.22.11-.3.19c-.08.08-.14.17-.18.27s-.06.19-.06.28c0 .07.02.13.06.18s.1.06.16.06c.07 0 .13-.02.17-.07s.07-.11.1-.2c.03-.09.05-.14.07-.16.1-.15.23-.22.4-.22.08 0 .16.02.22.05.07.04.12.09.16.15.04.07.06.14.06.22 0 .08-.02.16-.06.24s-.09.16-.16.23-.16.15-.27.23c-.06.04-.16.12-.3.25-.14.13-.3.28-.47.46-.04.04-.08.1-.12.18-.04.08-.05.14-.05.19 0 .07.03.14.08.19.05.05.13.08.23.08h1.44c.09 0 .15-.02.19-.07.04-.04.06-.1.06-.16 0-.07-.03-.13-.08-.17-.04-.04-.12-.06-.22-.06z"/></g></svg>