<svg xmlns="http://www.w3.org/2000/svg" viewBox="0 0 24 24"><style>.st0{fill:#c9c9c9}</style><g id="Camada_2"><path class="st0" d="M20.04 0H3.96c-2.2 0-4 1.8-4 4v16c0 2.2 1.8 4 4 4h16.09c2.2 0 4-1.8 4-4V4c-.01-2.2-1.81-4-4.01-4zm-15 5c.55 0 1 .45 1 1s-.45 1-1 1-1-.45-1-1 .45-1 1-1zM20 18.01c0 .55-.45 1-1 1H5c-.55 0-1-.45-1-1V9.99c0-.55.45-1 1-1h14c.55 0 1 .45 1 1v8.02zm.04-12c0 .54-.44.99-.99.99H9.04a1 1 0 0 1-1-.99v-.02a1 1 0 0 1 1-.99h10.01c.55 0 .99.45.99.99v.02z"/><path class="st0" d="M10.99 13h5.98c.55 0 .99-.45.99-.99V12c0-.55-.45-.99-.99-.99h-5.98a.984.984 0 0 0-.99.98V12a1 1 0 0 0 .99 1zM17.01 15h-5.98c-.55 0-.99.45-.99.99V16c0 .55.45.99.99.99h5.98c.55 0 .99-.45.99-.99v-.01c0-.54-.45-.99-.99-.99z"/><circle class="st0" cx="7" cy="12" r="1"/><circle class="st0" cx="7" cy="16" r="1"/></g></svg>