<svg xmlns="http://www.w3.org/2000/svg" viewBox="0 0 24 24"><style>.st0{fill:#c9c9c9}</style><path class="st0" d="M20 2h-1V.98c0-.54-.44-.98-.98-.98h-2.04c-.54 0-.98.44-.98.98V2H9V.98C9 .44 8.56 0 8.02 0H5.98C5.44 0 5 .44 5 .98V2H4C1.8 2 0 3.8 0 6v14c0 2.2 1.8 4 4 4h16c2.2 0 4-1.8 4-4V6c0-2.2-1.8-4-4-4zM8 15c0 .55-.45 1-1 1H5c-.55 0-1-.45-1-1v-2c0-.55.45-1 1-1h2c.55 0 1 .45 1 1v2zm0-6c0 .55-.45 1-1 1H5c-.55 0-1-.45-1-1V7c0-.55.45-1 1-1h2c.55 0 1 .45 1 1v2zm6 6c0 .55-.45 1-1 1h-2c-.55 0-1-.45-1-1v-2c0-.55.45-1 1-1h2c.55 0 1 .45 1 1v2zm0-6c0 .55-.45 1-1 1h-2c-.55 0-1-.45-1-1V7c0-.55.45-1 1-1h2c.55 0 1 .45 1 1v2zm6 6c0 .55-.45 1-1 1h-2c-.55 0-1-.45-1-1v-2c0-.55.45-1 1-1h2c.55 0 1 .45 1 1v2zm0-6c0 .55-.45 1-1 1h-2c-.55 0-1-.45-1-1V7c0-.55.45-1 1-1h2c.55 0 1 .45 1 1v2z" id="Camada_2"/></svg>