<svg xmlns="http://www.w3.org/2000/svg" viewBox="0 0 24 24"><style>.st0{fill:#c9c9c9}</style><g id="Camada_2"><path class="st0" d="M23.72 16.25h-2.43c-.28 0-.44-.22-.36-.48l1.15-4.04c.02-.07.02-.13.01-.19a.364.364 0 0 0-.19-.26.478.478 0 0 0-.18-.04h-3c-.28 0-.56.22-.64.48l-1.73 6.04c-.08.26.09.48.36.48h1.75c.27 0 .47.22.44.5l-.63 5.01c-.03.27.07.32.24.1l5.4-7.2c.17-.22.08-.4-.19-.4zM9 4H2C.9 4 0 4.9 0 6v4c0 1.1.9 2 2 2h7c1.1 0 2-.9 2-2V6c0-1.1-.9-2-2-2zM7.99 8L6.33 9.66c-.46.46-1.2.46-1.66 0L3.01 8a1.17 1.17 0 0 1 0-1.66c.19-.18.42-.27.66-.31V6h3.48c.3 0 .6.11.83.34.46.46.46 1.2.01 1.66z"/><path class="st0" d="M22 4h-7c-1.1 0-2 .9-2 2v4c0 1.1.9 2 2 2h.92l.23-.82c.21-.72.73-1.32 1.39-1.65L16.01 8a1.17 1.17 0 0 1 0-1.66c.18-.18.42-.27.66-.31V6h3.48a1.17 1.17 0 0 1 .83 2l-1.25 1.25h1.98a2.364 2.364 0 0 1 2.17 1.38c.07-.2.12-.41.12-.63V6c0-1.1-.9-2-2-2z"/></g></svg>