<svg xmlns="http://www.w3.org/2000/svg" viewBox="0 0 24 24"><style>.st0{fill:#c9c9c9}</style><g id="Camada_2"><path class="st0" d="M12 0H4C1.8 0 0 1.8 0 4v16c0 2.2 1.8 4 4 4h8c2.2 0 4-1.8 4-4V4c0-2.2-1.8-4-4-4zm2 18.01c0 .55-.45.99-.99.99H2.99c-.54 0-.99-.45-.99-.99V18a1 1 0 0 1 .99-1H13c.55 0 .99.45.99.99v.02zm0-6c0 .55-.45.99-.99.99H2.99c-.54 0-.99-.45-.99-.99V12a1 1 0 0 1 .99-1H13c.55 0 .99.45.99.99v.02zm0-6c0 .54-.45.99-.99.99H2.99C2.45 7 2 6.55 2 6.01v-.02c0-.54.45-.99.99-.99H13a1 1 0 0 1 1 .99v.02zM23.49 10.76L21 8.27c-.69-.69-1.8-.69-2.49 0-.34.35-.51.8-.51 1.24v5.23h.05c.05.36.19.71.46.99.69.69 1.8.69 2.49 0l2.49-2.49c.68-.68.68-1.8 0-2.48z"/></g></svg>