<?xml version="1.0" encoding="utf-8"?>
<!-- Generator: Adobe Illustrator 25.3.1, SVG Export Plug-In . SVG Version: 6.00 Build 0)  -->
<svg version="1.1" xmlns="http://www.w3.org/2000/svg" xmlns:xlink="http://www.w3.org/1999/xlink" x="0px" y="0px"
	 viewBox="0 0 24 24" style="enable-background:new 0 0 24 24;" xml:space="preserve">
<style type="text/css">
	.st0{fill:#C9C9C9;}
</style>
<g id="Camada_1">
</g>
<g id="Camada_3">
</g>
<g id="Camada_4">
</g>
<g id="Camada_2">
	<path class="st0" d="M12,0C5.37,0,0,5.37,0,12c0,6.63,5.37,12,12,12s12-5.37,12-12C24,5.37,18.63,0,12,0z M9,7.8
		c0-1.15,0.71-2.15,1.7-2.57c-0.36-0.34-0.58-0.82-0.58-1.35C10.13,2.84,10.96,2,12,2s1.87,0.84,1.87,1.87
		c0,0.53-0.22,1.01-0.58,1.35c1,0.43,1.7,1.42,1.7,2.57v0.5C15,8.68,14.68,9,14.3,9H9.7C9.32,9,9,8.68,9,8.3V7.8z M3.5,12
		c0-3.02,1.63-5.83,4.25-7.35c0.24-0.14,0.54-0.06,0.68,0.18c0.14,0.24,0.06,0.54-0.18,0.68C5.94,6.85,4.5,9.34,4.5,12
		c0,0.28-0.22,0.5-0.5,0.5S3.5,12.28,3.5,12z M10,18.3c0,0.39-0.32,0.7-0.7,0.7H4.7C4.31,19,4,18.68,4,18.3v-0.5
		c0-1.15,0.71-2.15,1.7-2.57c-0.36-0.34-0.58-0.82-0.58-1.35C5.12,12.84,5.96,12,7,12c1.04,0,1.87,0.84,1.87,1.87
		c0,0.53-0.22,1.01-0.58,1.35c1,0.43,1.7,1.42,1.7,2.57V18.3z M13.07,20.43c-0.36,0.05-0.72,0.07-1.07,0.07
		c-0.34,0-0.7-0.02-1.06-0.07c-0.27-0.04-0.47-0.29-0.43-0.56c0.04-0.28,0.29-0.47,0.56-0.43c0.61,0.08,1.26,0.08,1.87,0
		c0.27-0.04,0.53,0.16,0.56,0.43C13.53,20.14,13.34,20.39,13.07,20.43z M20,18.3c0,0.39-0.32,0.7-0.7,0.7h-4.6
		c-0.39,0-0.7-0.32-0.7-0.7v-0.5c0-1.15,0.71-2.15,1.7-2.57c-0.36-0.34-0.58-0.82-0.58-1.35c0-1.04,0.84-1.87,1.87-1.87
		c1.04,0,1.87,0.84,1.87,1.87c0,0.53-0.22,1.01-0.58,1.35c1,0.43,1.7,1.42,1.7,2.57V18.3z M20,12.5c-0.28,0-0.5-0.22-0.5-0.5
		c0-2.66-1.44-5.15-3.75-6.49c-0.24-0.14-0.32-0.44-0.18-0.68c0.14-0.24,0.45-0.32,0.68-0.18C18.87,6.17,20.5,8.98,20.5,12
		C20.5,12.28,20.28,12.5,20,12.5z"/>
</g>
</svg>
