<?xml version="1.0" encoding="utf-8"?>
<!-- Generator: Adobe Illustrator 25.3.1, SVG Export Plug-In . SVG Version: 6.00 Build 0)  -->
<svg version="1.1" xmlns="http://www.w3.org/2000/svg" xmlns:xlink="http://www.w3.org/1999/xlink" x="0px" y="0px"
	 viewBox="0 0 24 24" style="enable-background:new 0 0 24 24;" xml:space="preserve">
<style type="text/css">
	.st0{fill:#C9C9C9;}
</style>
<g id="Camada_1">
</g>
<g id="Camada_3">
</g>
<g id="Camada_4">
</g>
<g id="Camada_2">
	<g>
		<path class="st0" d="M5,0H1C0.45,0,0,0.45,0,1v4c0,0.55,0.45,1,1,1h4c0.55,0,1-0.45,1-1V1C6,0.45,5.55,0,5,0z"/>
		<path class="st0" d="M5,9H1c-0.55,0-1,0.45-1,1v4c0,0.55,0.45,1,1,1h4c0.55,0,1-0.45,1-1v-4C6,9.45,5.55,9,5,9z"/>
		<path class="st0" d="M5,18H1c-0.55,0-1,0.45-1,1v4c0,0.55,0.45,1,1,1h4c0.55,0,1-0.45,1-1v-4C6,18.45,5.55,18,5,18z"/>
		<path class="st0" d="M23,0h-4c-0.55,0-1,0.45-1,1v4c0,0.55,0.45,1,1,1h4c0.55,0,1-0.45,1-1V1C24,0.45,23.55,0,23,0z"/>
		<path class="st0" d="M23,9h-4c-0.55,0-1,0.45-1,1v4c0,0.55,0.45,1,1,1h4c0.55,0,1-0.45,1-1v-4C24,9.45,23.55,9,23,9z"/>
		<path class="st0" d="M23,18h-4c-0.55,0-1,0.45-1,1v4c0,0.55,0.45,1,1,1h4c0.55,0,1-0.45,1-1v-4C24,18.45,23.55,18,23,18z"/>
		<path class="st0" d="M14,0h-4C9.45,0,9,0.45,9,1v4c0,0.55,0.45,1,1,1h4c0.55,0,1-0.45,1-1V1C15,0.45,14.55,0,14,0z"/>
		<path class="st0" d="M14,9h-4c-0.55,0-1,0.45-1,1v4c0,0.55,0.45,1,1,1h4c0.55,0,1-0.45,1-1v-4C15,9.45,14.55,9,14,9z"/>
		<path class="st0" d="M14,18h-4c-0.55,0-1,0.45-1,1v4c0,0.55,0.45,1,1,1h4c0.55,0,1-0.45,1-1v-4C15,18.45,14.55,18,14,18z"/>
	</g>
</g>
</svg>
