<?xml version="1.0" encoding="utf-8"?>
<!-- Generator: Adobe Illustrator 25.3.1, SVG Export Plug-In . SVG Version: 6.00 Build 0)  -->
<svg version="1.1" xmlns="http://www.w3.org/2000/svg" xmlns:xlink="http://www.w3.org/1999/xlink" x="0px" y="0px"
	 viewBox="0 0 24 24" style="enable-background:new 0 0 24 24;" xml:space="preserve">
<style type="text/css">
	.st0{fill:#C9C9C9;}
</style>
<g id="Camada_1">
</g>
<g id="Camada_3">
</g>
<g id="Camada_4">
</g>
<g id="Camada_2">
	<path class="st0" d="M19,15h4c0.55,0,1-0.45,1-1v-4c0-0.55-0.45-1-1-1h-4c-0.55,0-1,0.45-1,1v1H6V4h4v1c0,0.55,0.45,1,1,1h4
		c0.55,0,1-0.45,1-1V1c0-0.55-0.45-1-1-1h-4c-0.55,0-1,0.45-1,1v1H1C0.45,2,0,2.45,0,3s0.45,1,1,1h3v17c0,0.55,0.45,1,1,1h13v1
		c0,0.55,0.45,1,1,1h4c0.55,0,1-0.45,1-1v-4c0-0.55-0.45-1-1-1h-4c-0.55,0-1,0.45-1,1v1H6v-7h12v1C18,14.55,18.45,15,19,15z"/>
</g>
</svg>
