<?xml version="1.0" encoding="utf-8"?>
<!-- Generator: Adobe Illustrator 25.3.1, SVG Export Plug-In . SVG Version: 6.00 Build 0)  -->
<svg version="1.1" xmlns="http://www.w3.org/2000/svg" xmlns:xlink="http://www.w3.org/1999/xlink" x="0px" y="0px"
	 viewBox="0 0 24 24" style="enable-background:new 0 0 24 24;" xml:space="preserve">
<style type="text/css">
	.st0{fill:#C9C9C9;}
</style>
<g id="Camada_1">
</g>
<g id="Camada_3">
</g>
<g id="Camada_4">
</g>
<g id="Camada_2">
	<g>
		<path class="st0" d="M18,14V4c0-2.2-1.8-4-4-4H4C1.8,0,0,1.8,0,4v10c0,2.2,1.8,4,4,4h10C16.2,18,18,16.2,18,14z M7.7,13.71
			c-0.1,0.1-0.21,0.17-0.33,0.22c-0.24,0.1-0.51,0.1-0.75,0c-0.12-0.05-0.23-0.12-0.33-0.22l-4-3.99C1.9,9.33,1.9,8.69,2.29,8.3v0
			c0.39-0.39,1.03-0.39,1.41,0L7,11.59l7.3-7.3c0.39-0.39,1.03-0.39,1.41,0v0c0.39,0.39,0.39,1.03,0,1.41L7.7,13.71L7.7,13.71z"/>
		<path class="st0" d="M22,8h-2v6c0,3.31-2.69,6-6,6H8v2c0,1.1,0.89,2,2,2h4c2.56,0,6,0,6,0c2.21,0,4-1.79,4-4c0-2.19,0-4.71,0-6v-4
			C24,8.89,23.11,8,22,8z"/>
	</g>
</g>
</svg>
