<?xml version="1.0" encoding="utf-8"?>
<!-- Generator: Adobe Illustrator 25.3.1, SVG Export Plug-In . SVG Version: 6.00 Build 0)  -->
<svg version="1.1" xmlns="http://www.w3.org/2000/svg" xmlns:xlink="http://www.w3.org/1999/xlink" x="0px" y="0px"
	 viewBox="0 0 24 24" style="enable-background:new 0 0 24 24;" xml:space="preserve">
<style type="text/css">
	.st0{fill:#C9C9C9;}
</style>
<g id="Camada_1">
</g>
<g id="Camada_3">
</g>
<g id="Camada_4">
</g>
<g id="Camada_2">
	<path class="st0" d="M20,2h-1V0.98C19,0.44,18.56,0,18.02,0h-2.04C15.44,0,15,0.44,15,0.98V2H9V0.98C9,0.44,8.56,0,8.02,0H5.98
		C5.44,0,5,0.44,5,0.98V2H4C1.8,2,0,3.8,0,6v14c0,2.2,1.8,4,4,4h16c2.2,0,4-1.8,4-4V6C24,3.8,22.2,2,20,2z M8,15c0,0.55-0.45,1-1,1
		H5c-0.55,0-1-0.45-1-1v-2c0-0.55,0.45-1,1-1h2c0.55,0,1,0.45,1,1V15z M8,9c0,0.55-0.45,1-1,1H5c-0.55,0-1-0.45-1-1V7
		c0-0.55,0.45-1,1-1h2c0.55,0,1,0.45,1,1V9z M14,15c0,0.55-0.45,1-1,1h-2c-0.55,0-1-0.45-1-1v-2c0-0.55,0.45-1,1-1h2
		c0.55,0,1,0.45,1,1V15z M14,9c0,0.55-0.45,1-1,1h-2c-0.55,0-1-0.45-1-1V7c0-0.55,0.45-1,1-1h2c0.55,0,1,0.45,1,1V9z M20,15
		c0,0.55-0.45,1-1,1h-2c-0.55,0-1-0.45-1-1v-2c0-0.55,0.45-1,1-1h2c0.55,0,1,0.45,1,1V15z M20,9c0,0.55-0.45,1-1,1h-2
		c-0.55,0-1-0.45-1-1V7c0-0.55,0.45-1,1-1h2c0.55,0,1,0.45,1,1V9z"/>
</g>
</svg>
