<?xml version="1.0" encoding="utf-8"?>
<!-- Generator: Adobe Illustrator 25.2.1, SVG Export Plug-In . SVG Version: 6.00 Build 0)  -->
<svg version="1.1" id="Camada_1" xmlns="http://www.w3.org/2000/svg" xmlns:xlink="http://www.w3.org/1999/xlink" x="0px" y="0px"
	 viewBox="0 0 24 24" style="enable-background:new 0 0 24 24;" xml:space="preserve">
<style type="text/css">
	.st0{fill:#C9C9C9;}
</style>
<g id="Camada_1_1_">

</g>
<g id="Camada_3">
</g>
<g id="Camada_4">
</g>
<path class="st0" d="M16,20h-2c-0.4,0-0.7-0.3-0.7-0.7V4.6C13.3,4.3,13.6,4,14,4h2c0.7,0,1.3-0.6,1.3-1.3S16.8,1.3,16,1.3H8
	c-0.7,0-1.3,0.6-1.3,1.3S7.2,4,8,4h2c0.4,0,0.7,0.3,0.7,0.7v14.7c0,0.4-0.3,0.7-0.7,0.7H8c-0.7,0-1.3,0.6-1.3,1.3
	c0,0.7,0.6,1.3,1.3,1.3h8c0.7,0,1.3-0.6,1.3-1.3C17.4,20.6,16.8,20,16,20z"/>
</svg>
