<?xml version="1.0" encoding="utf-8"?>
<!-- Generator: Adobe Illustrator 25.3.1, SVG Export Plug-In . SVG Version: 6.00 Build 0)  -->
<svg version="1.1" xmlns="http://www.w3.org/2000/svg" xmlns:xlink="http://www.w3.org/1999/xlink" x="0px" y="0px"
	 viewBox="0 0 24 24" style="enable-background:new 0 0 24 24;" xml:space="preserve">
<style type="text/css">
	.st0{fill:#C9C9C9;}
</style>
<g id="Camada_1">
</g>
<g id="Camada_3">
</g>
<g id="Camada_4">
</g>
<g id="Camada_2">
	<g>
		<g>
			<path class="st0" d="M20,2h-1V0.98C19,0.44,18.56,0,18.02,0h-2.04C15.44,0,15,0.44,15,0.98V2H9V0.98C9,0.44,8.56,0,8.02,0H5.98
				C5.44,0,5,0.44,5,0.98V2H4C1.8,2,0,3.8,0,6v14c0,2.2,1.8,4,4,4h16c2.2,0,4-1.8,4-4V6C24,3.8,22.2,2,20,2z M12,19
				c-3.31,0-6-2.69-6-6c0-3.31,2.69-6,6-6s6,2.69,6,6C18,16.31,15.31,19,12,19z"/>
		</g>
		<g>
			<path class="st0" d="M14.05,12.5H12.5V9.45C12.5,9.2,12.3,9,12.05,9h-0.11C11.7,9,11.5,9.2,11.5,9.45v3.5v0.11
				c0,0.25,0.2,0.45,0.45,0.45h0.11h2c0.25,0,0.45-0.2,0.45-0.45v-0.11C14.5,12.7,14.3,12.5,14.05,12.5z"/>
		</g>
	</g>
</g>
</svg>
