<?xml version="1.0" encoding="utf-8"?>
<!-- Generator: Adobe Illustrator 25.3.1, SVG Export Plug-In . SVG Version: 6.00 Build 0)  -->
<svg version="1.1" xmlns="http://www.w3.org/2000/svg" xmlns:xlink="http://www.w3.org/1999/xlink" x="0px" y="0px"
	 viewBox="0 0 24 24" style="enable-background:new 0 0 24 24;" xml:space="preserve">
<style type="text/css">
	.st0{fill:#C9C9C9;}
</style>
<g id="Camada_1">
</g>
<g id="Camada_3">
</g>
<g id="Camada_4">
</g>
<g id="Camada_2">
	<g>
		<path class="st0" d="M11.33,14.5v0.83c0,0.92,0.75,1.67,1.67,1.67c0.46,0,0.88-0.19,1.18-0.49l0,0l3.33-3.33l0,0
			c0.3-0.3,0.49-0.72,0.49-1.18s-0.19-0.88-0.49-1.18l0,0l-3.33-3.33l0,0C13.87,7.19,13.45,7,12.99,7c-0.92,0-1.67,0.75-1.67,1.67
			V9.5H6H1c-0.55,0-1,0.45-1,1v3.01c0,0.55,0.45,1,1,1h5H11.33z"/>
		<path class="st0" d="M20,0H10C7.8,0,6,1.8,6,4v3.5h3.52C10.01,6.05,11.38,5,12.99,5c0.98,0,1.9,0.38,2.59,1.07l3.33,3.33
			c0.69,0.69,1.07,1.61,1.07,2.59c0,0.98-0.38,1.9-1.07,2.59l-3.33,3.33C14.89,18.62,13.97,19,12.99,19c-1.61,0-2.99-1.05-3.47-2.5
			H6V20c0,2.2,1.8,4,4,4h10c2.2,0,4-1.8,4-4V4C24,1.8,22.2,0,20,0z"/>
	</g>
</g>
</svg>
