<?xml version="1.0" encoding="utf-8"?>
<!-- Generator: Adobe Illustrator 25.3.1, SVG Export Plug-In . SVG Version: 6.00 Build 0)  -->
<svg version="1.1" xmlns="http://www.w3.org/2000/svg" xmlns:xlink="http://www.w3.org/1999/xlink" x="0px" y="0px"
	 viewBox="0 0 24 24" style="enable-background:new 0 0 24 24;" xml:space="preserve">
<style type="text/css">
	.st0{fill:#C9C9C9;}
</style>
<g id="Camada_1">
</g>
<g id="Camada_3">
</g>
<g id="Camada_4">
</g>
<g id="Camada_2">
	<g>
		<path class="st0" d="M18,4h-2c0-2.21-1.79-4-4-4S8,1.79,8,4H6C3.8,4,2,5.8,2,8v12c0,2.2,1.8,4,4,4h12c2.2,0,4-1.8,4-4V8
			C22,5.8,20.2,4,18,4z M12,2c1.1,0,2,0.9,2,2h-4C10,2.9,10.9,2,12,2z M20,20c0,1.1-0.9,2-2,2H6c-1.1,0-2-0.9-2-2V8c0-1.1,0.9-2,2-2
			h2v1.05C8,7.57,8.43,8,8.95,8h6.11C15.57,8,16,7.57,16,7.05V6h2c1.1,0,2,0.9,2,2V20z"/>
		<path class="st0" d="M17,10H7c-0.55,0-1,0.45-1,1s0.45,1,1,1h10c0.55,0,1-0.45,1-1S17.55,10,17,10z"/>
		<path class="st0" d="M17,14H7c-0.55,0-1,0.45-1,1s0.45,1,1,1h10c0.55,0,1-0.45,1-1S17.55,14,17,14z"/>
		<path class="st0" d="M17,18H7c-0.55,0-1,0.45-1,1s0.45,1,1,1h10c0.55,0,1-0.45,1-1S17.55,18,17,18z"/>
	</g>
</g>
</svg>
