<?xml version="1.0" encoding="utf-8"?>
<!-- Generator: Adobe Illustrator 25.3.1, SVG Export Plug-In . SVG Version: 6.00 Build 0)  -->
<svg version="1.1" xmlns="http://www.w3.org/2000/svg" xmlns:xlink="http://www.w3.org/1999/xlink" x="0px" y="0px"
	 viewBox="0 0 24 24" style="enable-background:new 0 0 24 24;" xml:space="preserve">
<style type="text/css">
	.st0{fill:#C9C9C9;}
</style>
<g id="Camada_1">
</g>
<g id="Camada_3">
</g>
<g id="Camada_4">
</g>
<g id="Camada_2">
	<path class="st0" d="M18,7.2c-0.2,0-0.39,0.04-0.59,0.06C16.09,5.75,14.16,4.8,12,4.8c-3.15,0-5.82,2.02-6.8,4.84
		C5.07,9.63,4.94,9.6,4.8,9.6C2.15,9.6,0,11.75,0,14.4c0,2.65,2.15,4.8,4.8,4.8H18c3.31,0,6-2.69,6-6C24,9.89,21.31,7.2,18,7.2z
		 M14,12.5h-0.5v3c0,0.55-0.45,1-1,1h-1c-0.55,0-1-0.45-1-1v-3H10c-0.55,0-1-0.45-1-1c0-0.28,0.11-0.53,0.29-0.71l0,0l2-2l0,0
		C11.47,8.61,11.72,8.5,12,8.5s0.53,0.11,0.71,0.29l0,0l2,2l0,0C14.89,10.97,15,11.22,15,11.5C15,12.05,14.55,12.5,14,12.5z"/>
</g>
</svg>
