<?xml version="1.0" encoding="utf-8"?>
<!-- Generator: Adobe Illustrator 25.3.1, SVG Export Plug-In . SVG Version: 6.00 Build 0)  -->
<svg version="1.1" xmlns="http://www.w3.org/2000/svg" xmlns:xlink="http://www.w3.org/1999/xlink" x="0px" y="0px"
	 viewBox="0 0 24 24" style="enable-background:new 0 0 24 24;" xml:space="preserve">
<style type="text/css">
	.st0{fill:#C9C9C9;}
</style>
<g id="Camada_1">
</g>
<g id="Camada_3">
</g>
<g id="Camada_4">
</g>
<g id="Camada_2">
	<g>
		<path class="st0" d="M20,10H4c-2.2,0-4,1.8-4,4v6c0,2.2,1.8,4,4,4h16c2.2,0,4-1.8,4-4v-6C24,11.8,22.2,10,20,10z M19,20H5
			c-0.55,0-1-0.45-1-1c0-0.55,0.45-1,1-1h14c0.55,0,1,0.45,1,1C20,19.55,19.55,20,19,20z M19,16H5c-0.55,0-1-0.45-1-1
			c0-0.55,0.45-1,1-1h14c0.55,0,1,0.45,1,1C20,15.55,19.55,16,19,16z"/>
		<path class="st0" d="M4,8h16c2.2,0,4-1.8,4-4c0-2.2-1.8-4-4-4H4C1.8,0,0,1.8,0,4C0,6.2,1.8,8,4,8z M14.69,2.34
			c0.18-0.18,0.42-0.27,0.66-0.31V2h3.48c0.3,0,0.6,0.11,0.83,0.34c0.46,0.46,0.46,1.2,0,1.66L18,5.66c-0.46,0.46-1.2,0.46-1.66,0
			L14.69,4C14.23,3.54,14.23,2.8,14.69,2.34z"/>
	</g>
</g>
</svg>
