<?xml version="1.0" encoding="utf-8"?>
<!-- Generator: Adobe Illustrator 25.3.1, SVG Export Plug-In . SVG Version: 6.00 Build 0)  -->
<svg version="1.1" xmlns="http://www.w3.org/2000/svg" xmlns:xlink="http://www.w3.org/1999/xlink" x="0px" y="0px"
	 viewBox="0 0 24 24" style="enable-background:new 0 0 24 24;" xml:space="preserve">
<style type="text/css">
	.st0{fill:#C9C9C9;}
</style>
<g id="Camada_1">
</g>
<g id="Camada_3">
</g>
<g id="Camada_4">
</g>
<g id="Camada_2">
	<g>
		<path class="st0" d="M8.01,8.77C7.82,8.69,7.6,8.65,7.37,8.65c-0.36,0-0.66,0.09-0.92,0.26C6.2,9.08,6,9.33,5.87,9.66
			c-0.08,0.2-0.13,0.44-0.17,0.71c-0.04,0.28-0.05,0.59-0.05,0.93c0,0.27,0.02,0.51,0.05,0.74c0.03,0.23,0.08,0.44,0.16,0.63
			c0.14,0.35,0.35,0.62,0.62,0.81c0.27,0.2,0.58,0.29,0.93,0.29c0.3,0,0.57-0.07,0.82-0.22c0.25-0.15,0.45-0.35,0.6-0.62
			c0.12-0.22,0.21-0.46,0.25-0.73c0.05-0.27,0.07-0.59,0.07-0.96c0-0.69-0.09-1.22-0.26-1.6c-0.1-0.22-0.22-0.4-0.37-0.54
			C8.37,8.95,8.2,8.84,8.01,8.77z M8.13,12.24C8.08,12.51,8,12.72,7.88,12.87c-0.12,0.15-0.28,0.22-0.49,0.22
			c-0.2,0-0.36-0.07-0.48-0.21c-0.12-0.14-0.2-0.35-0.25-0.62c-0.05-0.27-0.08-0.63-0.08-1.05c0-0.63,0.06-1.1,0.18-1.4
			c0.12-0.3,0.33-0.46,0.63-0.46c0.21,0,0.37,0.07,0.49,0.2c0.12,0.14,0.2,0.34,0.25,0.6c0.05,0.27,0.08,0.61,0.08,1.02
			C8.2,11.61,8.18,11.97,8.13,12.24z"/>
		<path class="st0" d="M11.13,13.65c0.08,0.09,0.2,0.14,0.34,0.14c0.31,0,0.47-0.23,0.47-0.69V9.19c0-0.16-0.04-0.29-0.11-0.39
			c-0.07-0.09-0.17-0.14-0.29-0.14c-0.11,0-0.18,0.02-0.22,0.06c-0.04,0.04-0.12,0.15-0.25,0.33s-0.27,0.34-0.44,0.48
			s-0.39,0.28-0.66,0.41c-0.18,0.09-0.31,0.16-0.39,0.21c-0.07,0.05-0.11,0.14-0.11,0.26c0,0.1,0.04,0.19,0.11,0.26
			s0.16,0.11,0.25,0.11c0.2,0,0.59-0.22,1.17-0.67v3.11C11.01,13.41,11.05,13.55,11.13,13.65z"/>
		<path class="st0" d="M20,2h-1V0.98C19,0.44,18.56,0,18.02,0h-2.04C15.44,0,15,0.44,15,0.98V2H9V0.98C9,0.44,8.56,0,8.02,0H5.98
			C5.44,0,5,0.44,5,0.98V2H4C1.8,2,0,3.8,0,6v12c0,2.2,1.8,4,4,4h8.28c-0.8-1.13-1.28-2.51-1.28-4c0-0.7,0.11-1.37,0.29-2H6
			c-1.1,0-2-0.9-2-2V8c0-1.1,0.9-2,2-2h6c1.1,0,2,0.9,2,2v4.26c1.14-0.79,2.51-1.26,4-1.26c2.55,0,4.78,1.37,6,3.41V6
			C24,3.8,22.2,2,20,2z M20,9c0,0.55-0.45,1-1,1h-2c-0.55,0-1-0.45-1-1V7c0-0.55,0.45-1,1-1h2c0.55,0,1,0.45,1,1V9z"/>
		<path class="st0" d="M18,12c-3.31,0-6,2.69-6,6c0,1.54,0.58,2.94,1.54,4c0.14,0.15,0.28,0.29,0.43,0.43c0,0,0.01,0.01,0.01,0.01
			c0.14,0.13,0.29,0.25,0.45,0.37c0.01,0.01,0.02,0.02,0.04,0.03c0.15,0.11,0.3,0.21,0.46,0.3c0.02,0.01,0.05,0.03,0.07,0.04
			c0.15,0.09,0.3,0.16,0.45,0.24c0.03,0.02,0.07,0.03,0.1,0.05c0.14,0.07,0.29,0.12,0.44,0.18c0.05,0.02,0.09,0.04,0.14,0.05
			c0.14,0.05,0.29,0.09,0.44,0.12c0.06,0.01,0.11,0.03,0.17,0.04c0.15,0.03,0.3,0.05,0.45,0.07c0.06,0.01,0.11,0.02,0.17,0.03
			C17.57,23.99,17.78,24,18,24c3.31,0,6-2.69,6-6S21.31,12,18,12z M20.5,18.05c0,0.25-0.2,0.45-0.45,0.45h-2h-0.11
			c-0.25,0-0.45-0.2-0.45-0.45v-0.11v-3.5c0-0.25,0.2-0.45,0.45-0.45h0.11c0.25,0,0.45,0.2,0.45,0.45v3.05h1.55
			c0.25,0,0.45,0.2,0.45,0.45V18.05z"/>
	</g>
</g>
</svg>
