<?xml version="1.0" encoding="utf-8"?>
<!-- Generator: Adobe Illustrator 25.3.1, SVG Export Plug-In . SVG Version: 6.00 Build 0)  -->
<svg version="1.1" xmlns="http://www.w3.org/2000/svg" xmlns:xlink="http://www.w3.org/1999/xlink" x="0px" y="0px"
	 viewBox="0 0 24 24" style="enable-background:new 0 0 24 24;" xml:space="preserve">
<style type="text/css">
	.st0{fill:#C9C9C9;}
</style>
<g id="Camada_1">
</g>
<g id="Camada_3">
</g>
<g id="Camada_4">
</g>
<g id="Camada_2">
	<g>
		<path class="st0" d="M2.99,16.31v-8H1.98c-1.1,0-2,0.9-2,2v4c0,1.1,0.9,2,2,2H2.99z"/>
		<path class="st0" d="M8.98,18.31h-1.5c-0.28,0-0.5-0.22-0.5-0.5v-11c0-0.28,0.22-0.5,0.5-0.5h1.5c0.55,0,1-0.45,1-1
			c0-0.55-0.45-1-1-1h-6c-0.55,0-1,0.45-1,1c0,0.55,0.45,1,1,1h1.5c0.28,0,0.5,0.22,0.5,0.5v11c0,0.28-0.22,0.5-0.5,0.5h-1.5
			c-0.55,0-1,0.45-1,1c0,0.55,0.45,1,1,1h6c0.55,0,1-0.45,1-1C9.98,18.75,9.54,18.31,8.98,18.31z"/>
		<path class="st0" d="M21.98,8.31H8.98v8h5.7l0.91-3.17l-1.65,1.65c-0.46,0.46-1.2,0.46-1.66,0c-0.18-0.18-0.27-0.42-0.31-0.66
			h-0.03v-3.48c0-0.3,0.11-0.6,0.34-0.83c0.46-0.46,1.2-0.46,1.66,0l1.66,1.66c0.17,0.17,0.26,0.38,0.3,0.6l0.26-0.9
			c0.32-1.12,1.4-1.93,2.56-1.93h3c0.76,0,1.46,0.34,1.91,0.94c0.18,0.24,0.3,0.51,0.37,0.79v-0.67
			C23.98,9.21,23.08,8.31,21.98,8.31z"/>
		<path class="st0" d="M23.7,16.25h-2.43c-0.28,0-0.44-0.22-0.36-0.48l1.15-4.04c0.08-0.26-0.09-0.48-0.36-0.48h-3
			c-0.27,0-0.56,0.22-0.64,0.48l-1.73,6.04c-0.08,0.26,0.09,0.48,0.36,0.48h1.75c0.28,0,0.47,0.22,0.44,0.5l-0.63,5.01
			c-0.03,0.27,0.07,0.32,0.24,0.1l5.4-7.2C24.07,16.43,23.98,16.25,23.7,16.25z"/>
	</g>
</g>
</svg>
