<?xml version="1.0" encoding="utf-8"?>
<!-- Generator: Adobe Illustrator 25.3.1, SVG Export Plug-In . SVG Version: 6.00 Build 0)  -->
<svg version="1.1" xmlns="http://www.w3.org/2000/svg" xmlns:xlink="http://www.w3.org/1999/xlink" x="0px" y="0px"
	 viewBox="0 0 24 24" style="enable-background:new 0 0 24 24;" xml:space="preserve">
<style type="text/css">
	.st0{fill:#C9C9C9;}
</style>
<g id="Camada_1">
</g>
<g id="Camada_3">
</g>
<g id="Camada_4">
</g>
<g id="Camada_2">
	<g>
		<path class="st0" d="M3.01,16V8H2c-1.1,0-2,0.9-2,2v4c0,1.1,0.9,2,2,2H3.01z"/>
		<path class="st0" d="M9,18H7.5C7.22,18,7,17.78,7,17.5v-11C7,6.22,7.22,6,7.5,6H9c0.55,0,1-0.45,1-1c0-0.55-0.45-1-1-1H3
			C2.45,4,2,4.45,2,5c0,0.55,0.45,1,1,1h1.5C4.78,6,5,6.22,5,6.5v11C5,17.78,4.78,18,4.5,18H3c-0.55,0-1,0.45-1,1c0,0.55,0.45,1,1,1
			h6c0.55,0,1-0.45,1-1C10,18.45,9.55,18,9,18z"/>
		<path class="st0" d="M22,8H8.99v8H22c1.1,0,2-0.9,2-2v-4C24,8.9,23.1,8,22,8z M15.6,12.83l-1.66,1.66c-0.46,0.46-1.2,0.46-1.66,0
			c-0.18-0.18-0.27-0.42-0.31-0.66h-0.03v-3.48c0-0.3,0.11-0.6,0.34-0.83c0.46-0.46,1.2-0.46,1.66,0l1.66,1.66
			C16.06,11.63,16.06,12.37,15.6,12.83z M21.66,12.83L20,14.49c-0.46,0.46-1.2,0.46-1.66,0c-0.18-0.18-0.27-0.42-0.31-0.66H18v-3.48
			c0-0.3,0.11-0.6,0.34-0.83c0.46-0.46,1.2-0.46,1.66,0l1.66,1.66C22.11,11.63,22.11,12.37,21.66,12.83z"/>
	</g>
</g>
</svg>
