<?xml version="1.0" encoding="utf-8"?>
<!-- Generator: Adobe Illustrator 25.3.1, SVG Export Plug-In . SVG Version: 6.00 Build 0)  -->
<svg version="1.1" xmlns="http://www.w3.org/2000/svg" xmlns:xlink="http://www.w3.org/1999/xlink" x="0px" y="0px"
	 viewBox="0 0 24 24" style="enable-background:new 0 0 24 24;" xml:space="preserve">
<style type="text/css">
	.st0{fill:#C9C9C9;}
</style>
<g id="Camada_1">
</g>
<g id="Camada_3">
</g>
<g id="Camada_4">
</g>
<g id="Camada_2">
	<g>
		<path class="st0" d="M22,0H2C0.9,0,0,0.9,0,2v2c0,1.1,0.9,2,2,2h20c1.1,0,2-0.9,2-2V2C24,0.9,23.1,0,22,0z"/>
		<path class="st0" d="M21.19,8.71C20.8,8.32,20.03,8,19.48,8H0.53c-0.55,0-0.68,0.32-0.29,0.71l2.59,2.59
			C3.22,11.68,3.98,12,4.53,12h18.95c0.55,0,0.68-0.32,0.29-0.71L21.19,8.71z"/>
		<path class="st0" d="M4.53,14c-0.55,0-1.32,0.32-1.71,0.71l-2.59,2.59C-0.15,17.68-0.02,18,0.53,18h18.95
			c0.55,0,1.32-0.32,1.71-0.71l2.59-2.59c0.39-0.39,0.26-0.71-0.29-0.71H4.53z"/>
		<path class="st0" d="M21.18,20.71C20.79,20.32,20.02,20,19.47,20H0.53c-0.55,0-0.68,0.32-0.29,0.71l2.59,2.59
			C3.21,23.68,3.98,24,4.53,24h18.95c0.55,0,0.68-0.32,0.29-0.71L21.18,20.71z"/>
	</g>
</g>
</svg>
