<?xml version="1.0" encoding="utf-8"?>
<!-- Generator: Adobe Illustrator 25.3.1, SVG Export Plug-In . SVG Version: 6.00 Build 0)  -->
<svg version="1.1" xmlns="http://www.w3.org/2000/svg" xmlns:xlink="http://www.w3.org/1999/xlink" x="0px" y="0px"
	 viewBox="0 0 24 24" style="enable-background:new 0 0 24 24;" xml:space="preserve">
<style type="text/css">
	.st0{fill:#C9C9C9;}
</style>
<g id="Camada_1">
</g>
<g id="Camada_3">
</g>
<g id="Camada_4">
</g>
<g id="Camada_2">
	<g>
		<path class="st0" d="M20.04,0H3.96c-2.2,0-4,1.8-4,4v16c0,2.2,1.8,4,4,4h16.09c2.2,0,4-1.8,4-4V4C24.04,1.8,22.24,0,20.04,0z
			 M5.04,5c0.55,0,1,0.45,1,1c0,0.55-0.45,1-1,1s-1-0.45-1-1C4.04,5.45,4.49,5,5.04,5z M20,18.01c0,0.55-0.45,1-1,1H5
			c-0.55,0-1-0.45-1-1V9.99c0-0.55,0.45-1,1-1h14c0.55,0,1,0.45,1,1V18.01z M20.04,6.01C20.04,6.55,19.6,7,19.05,7H9.04
			C8.49,7,8.04,6.55,8.04,6.01V5.99C8.04,5.45,8.49,5,9.04,5h10.01c0.55,0,0.99,0.45,0.99,0.99V6.01z"/>
		<path class="st0" d="M10.99,13h5.98c0.55,0,0.99-0.45,0.99-0.99v-0.01c0-0.55-0.45-0.99-0.99-0.99h-5.98
			C10.45,11,10,11.45,10,11.99v0.01C10,12.55,10.45,13,10.99,13z"/>
		<path class="st0" d="M17.01,15h-5.98c-0.55,0-0.99,0.45-0.99,0.99v0.01c0,0.55,0.45,0.99,0.99,0.99h5.98
			c0.55,0,0.99-0.45,0.99-0.99v-0.01C18,15.45,17.55,15,17.01,15z"/>
		<circle class="st0" cx="7" cy="12" r="1"/>
		<circle class="st0" cx="7" cy="16" r="1"/>
	</g>
</g>
</svg>
