<?xml version="1.0" encoding="utf-8"?>
<!-- Generator: Adobe Illustrator 25.3.1, SVG Export Plug-In . SVG Version: 6.00 Build 0)  -->
<svg version="1.1" xmlns="http://www.w3.org/2000/svg" xmlns:xlink="http://www.w3.org/1999/xlink" x="0px" y="0px"
	 viewBox="0 0 24 24" style="enable-background:new 0 0 24 24;" xml:space="preserve">
<style type="text/css">
	.st0{fill:#C9C9C9;}
</style>
<g id="Camada_1">
</g>
<g id="Camada_3">
</g>
<g id="Camada_4">
</g>
<g id="Camada_2">
	<path class="st0" d="M20.04,0H3.96c-2.2,0-4,1.8-4,4v16c0,2.2,1.8,4,4,4h16.09c2.2,0,4-1.8,4-4V4C24.04,1.8,22.24,0,20.04,0z
		 M3.75,4.89C3.81,4.84,3.92,4.78,4.08,4.7C4.32,4.59,4.5,4.48,4.65,4.35s0.27-0.26,0.38-0.41S5.2,3.69,5.24,3.66
		s0.1-0.05,0.19-0.05c0.1,0,0.19,0.04,0.25,0.12s0.09,0.19,0.09,0.33v3.35C5.77,7.8,5.63,8,5.37,8C5.25,8,5.15,7.96,5.08,7.88
		s-0.11-0.2-0.11-0.35V4.86c-0.5,0.38-0.83,0.57-1,0.57c-0.08,0-0.16-0.03-0.22-0.1S3.65,5.19,3.65,5.11
		C3.65,5.01,3.69,4.93,3.75,4.89z M6.41,19.15c-0.07,0.17-0.18,0.31-0.31,0.44s-0.3,0.23-0.49,0.3C5.41,19.97,5.2,20,4.97,20
		c-0.23,0-0.44-0.04-0.63-0.13S4,19.69,3.88,19.56c-0.12-0.13-0.21-0.26-0.27-0.39c-0.06-0.13-0.09-0.25-0.09-0.33
		c0-0.11,0.04-0.21,0.11-0.27c0.07-0.07,0.17-0.1,0.27-0.1c0.05,0,0.11,0.02,0.16,0.05s0.08,0.07,0.1,0.12
		c0.1,0.27,0.21,0.47,0.33,0.6c0.12,0.13,0.28,0.2,0.49,0.2c0.12,0,0.24-0.03,0.35-0.09s0.21-0.15,0.28-0.26
		c0.07-0.12,0.11-0.25,0.11-0.41c0-0.23-0.06-0.41-0.19-0.54S5.23,17.93,5,17.93c-0.04,0-0.1,0-0.18,0.01s-0.13,0.01-0.16,0.01
		c-0.11,0-0.19-0.03-0.25-0.08s-0.09-0.13-0.09-0.22c0-0.09,0.04-0.17,0.11-0.23s0.17-0.09,0.31-0.09h0.12
		c0.18,0,0.33-0.05,0.46-0.16s0.2-0.26,0.2-0.45c0-0.15-0.05-0.28-0.16-0.39s-0.24-0.16-0.42-0.16c-0.12,0-0.22,0.02-0.29,0.05
		s-0.14,0.08-0.18,0.13s-0.09,0.13-0.13,0.21s-0.08,0.17-0.11,0.24c-0.02,0.04-0.05,0.07-0.11,0.1s-0.11,0.04-0.18,0.04
		c-0.08,0-0.15-0.03-0.21-0.1c-0.07-0.06-0.1-0.15-0.1-0.25c0-0.1,0.03-0.21,0.09-0.32c0.06-0.11,0.15-0.22,0.27-0.32
		c0.12-0.1,0.26-0.18,0.44-0.25s0.37-0.09,0.59-0.09c0.19,0,0.36,0.03,0.52,0.08s0.29,0.13,0.41,0.22s0.2,0.21,0.26,0.34
		s0.09,0.27,0.09,0.42c0,0.2-0.04,0.36-0.13,0.5c-0.08,0.14-0.21,0.28-0.36,0.41c0.15,0.08,0.28,0.18,0.39,0.28
		c0.1,0.11,0.18,0.22,0.24,0.35s0.08,0.27,0.08,0.42C6.52,18.81,6.48,18.98,6.41,19.15z M6.44,13.9C6.38,13.97,6.28,14,6.15,14H4
		c-0.15,0-0.26-0.04-0.34-0.12s-0.12-0.18-0.12-0.29c0-0.07,0.03-0.16,0.08-0.28s0.11-0.21,0.17-0.27c0.26-0.27,0.49-0.5,0.7-0.69
		s0.36-0.32,0.45-0.38c0.16-0.11,0.29-0.23,0.4-0.34c0.11-0.11,0.19-0.23,0.24-0.35c0.06-0.12,0.08-0.24,0.08-0.35
		c0-0.13-0.03-0.24-0.09-0.34s-0.14-0.18-0.24-0.23c-0.1-0.05-0.21-0.08-0.34-0.08c-0.26,0-0.46,0.11-0.6,0.34
		c-0.02,0.03-0.05,0.11-0.1,0.24c-0.05,0.13-0.1,0.23-0.16,0.3S4,11.26,3.88,11.26c-0.1,0-0.18-0.03-0.24-0.1s-0.1-0.15-0.1-0.26
		c0-0.13,0.03-0.28,0.09-0.42s0.15-0.28,0.27-0.4c0.12-0.12,0.27-0.22,0.46-0.29c0.18-0.07,0.4-0.11,0.65-0.11
		c0.3,0,0.55,0.05,0.76,0.14c0.14,0.06,0.26,0.15,0.36,0.26s0.18,0.24,0.24,0.38c0.06,0.14,0.09,0.29,0.09,0.45
		c0,0.24-0.06,0.46-0.18,0.66c-0.12,0.2-0.24,0.35-0.37,0.47s-0.33,0.29-0.63,0.53c-0.29,0.24-0.5,0.43-0.61,0.56
		c-0.05,0.05-0.09,0.12-0.14,0.19h1.53c0.15,0,0.27,0.03,0.35,0.09s0.12,0.15,0.12,0.25C6.54,13.75,6.51,13.83,6.44,13.9z
		 M20.04,18.01c0,0.55-0.45,0.99-0.99,0.99H9.04c-0.55,0-0.99-0.45-0.99-0.99v-0.01c0-0.55,0.45-0.99,0.99-0.99h10.01
		c0.55,0,0.99,0.45,0.99,0.99V18.01z M20.04,12.01c0,0.55-0.45,0.99-0.99,0.99H9.04c-0.55,0-0.99-0.45-0.99-0.99v-0.01
		c0-0.55,0.45-0.99,0.99-0.99h10.01c0.55,0,0.99,0.45,0.99,0.99V12.01z M20.04,6.01C20.04,6.55,19.6,7,19.05,7H9.04
		C8.49,7,8.04,6.55,8.04,6.01V5.99C8.04,5.45,8.49,5,9.04,5h10.01c0.55,0,0.99,0.45,0.99,0.99V6.01z"/>
</g>
</svg>
