<?xml version="1.0" encoding="utf-8"?>
<!-- Generator: Adobe Illustrator 25.3.1, SVG Export Plug-In . SVG Version: 6.00 Build 0)  -->
<svg version="1.1" xmlns="http://www.w3.org/2000/svg" xmlns:xlink="http://www.w3.org/1999/xlink" x="0px" y="0px"
	 viewBox="0 0 24 24" style="enable-background:new 0 0 24 24;" xml:space="preserve">
<style type="text/css">
	.st0{fill:#C9C9C9;}
</style>
<g id="Camada_1">
</g>
<g id="Camada_3">
</g>
<g id="Camada_4">
</g>
<g id="Camada_2">
	<g>
		<path class="st0" d="M20,0H4C1.8,0,0,1.8,0,4v16c0,2.2,1.8,4,4,4h12.29c-0.01-0.16-0.02-0.31,0.01-0.49l0.41-3.26
			c-0.38,0-0.74-0.09-1.07-0.25H5c-0.55,0-1-0.45-1-1v-2c0-0.55,0.45-1,1-1h9.78l0.57-2H4.8C4.36,14,4,13.55,4,13v-2
			c0-0.55,0.36-1,0.8-1h12.09c0.49-0.46,1.14-0.75,1.83-0.75h3c0.76,0,1.46,0.34,1.91,0.94c0.18,0.24,0.3,0.51,0.37,0.79V4
			C24,1.8,22.2,0,20,0z M19.95,7c0,0.55-0.45,1-1,1H5C4.45,8,4,7.55,4,7V5c0-0.55,0.45-1,1-1h13.95c0.55,0,1,0.45,1,1V7z"/>
		<path class="st0" d="M23.72,16.25h-2.43c-0.27,0-0.44-0.22-0.36-0.48l1.15-4.04c0.08-0.26-0.09-0.48-0.36-0.48h-3
			c-0.27,0-0.56,0.22-0.64,0.48l-1.73,6.04c-0.08,0.26,0.09,0.48,0.36,0.48h1.75c0.28,0,0.47,0.22,0.44,0.5l-0.63,5.01
			c-0.03,0.27,0.07,0.32,0.24,0.1l5.4-7.2C24.08,16.43,23.99,16.25,23.72,16.25z"/>
	</g>
</g>
</svg>
