<?xml version="1.0" encoding="utf-8"?>
<!-- Generator: Adobe Illustrator 25.3.1, SVG Export Plug-In . SVG Version: 6.00 Build 0)  -->
<svg version="1.1" xmlns="http://www.w3.org/2000/svg" xmlns:xlink="http://www.w3.org/1999/xlink" x="0px" y="0px"
	 viewBox="0 0 24 24" style="enable-background:new 0 0 24 24;" xml:space="preserve">
<style type="text/css">
	.st0{fill:#C9C9C9;}
</style>
<g id="Camada_1">
</g>
<g id="Camada_3">
</g>
<g id="Camada_4">
</g>
<g id="Camada_2">
	<g>
		<path class="st0" d="M20,0H4C1.8,0,0,1.8,0,4v16c0,2.2,1.8,4,4,4h16c2.2,0,4-1.8,4-4V4C24,1.8,22.2,0,20,0z M20,16
			c0,1.1-0.9,2-2,2H6c-1.1,0-2-0.9-2-2V8c0-1.1,0.9-2,2-2h12c1.1,0,2,0.9,2,2V16z"/>
		<path class="st0" d="M15.94,10.89l-2.06-0.3c-0.28-0.04-0.61-0.28-0.73-0.53L12.23,8.2c-0.12-0.25-0.33-0.25-0.45,0l-0.92,1.87
			c-0.12,0.25-0.45,0.49-0.73,0.53l-2.06,0.3c-0.28,0.04-0.34,0.23-0.14,0.43l1.49,1.45c0.2,0.2,0.33,0.58,0.28,0.86l-0.35,2.05
			c-0.05,0.28,0.12,0.4,0.37,0.27l1.84-0.97c0.25-0.13,0.65-0.13,0.9,0l1.84,0.97c0.25,0.13,0.41,0.01,0.37-0.27l-0.35-2.05
			c-0.05-0.28,0.08-0.66,0.28-0.86l1.49-1.45C16.28,11.13,16.21,10.93,15.94,10.89z"/>
	</g>
</g>
</svg>
