<?xml version="1.0" encoding="utf-8"?>
<!-- Generator: Adobe Illustrator 25.3.1, SVG Export Plug-In . SVG Version: 6.00 Build 0)  -->
<svg version="1.1" xmlns="http://www.w3.org/2000/svg" xmlns:xlink="http://www.w3.org/1999/xlink" x="0px" y="0px"
	 viewBox="0 0 24 24" style="enable-background:new 0 0 24 24;" xml:space="preserve">
<style type="text/css">
	.st0{fill:#C9C9C9;}
</style>
<g id="Camada_1">
</g>
<g id="Camada_3">
</g>
<g id="Camada_4">
</g>
<g id="Camada_2">
	<g>
		<path class="st0" d="M20.04,0H3.96c-2.2,0-4,1.8-4,4v16c0,2.2,1.8,4,4,4h16.09c2.2,0,4-1.8,4-4V4C24.04,1.8,22.24,0,20.04,0z
			 M3.75,5.33C3.69,5.27,3.65,5.19,3.65,5.11c0-0.1,0.03-0.17,0.09-0.22S3.92,4.78,4.08,4.7C4.31,4.59,4.5,4.48,4.64,4.35
			c0.14-0.12,0.27-0.26,0.38-0.41S5.2,3.69,5.24,3.66s0.1-0.05,0.19-0.05c0.1,0,0.19,0.04,0.25,0.12s0.09,0.19,0.09,0.33v3.35
			C5.77,7.8,5.63,8,5.37,8C5.25,8,5.15,7.96,5.08,7.88s-0.11-0.2-0.11-0.35V4.86c-0.5,0.38-0.83,0.57-1,0.57
			C3.88,5.43,3.81,5.4,3.75,5.33z M20,18.01c0,0.55-0.45,1-1,1H5c-0.55,0-1-0.45-1-1V9.99c0-0.55,0.45-1,1-1h14c0.55,0,1,0.45,1,1
			V18.01z M20.04,6.01C20.04,6.55,19.6,7,19.05,7H9.04C8.49,7,8.04,6.55,8.04,6.01V5.99C8.04,5.45,8.49,5,9.04,5h10.01
			c0.55,0,0.99,0.45,0.99,0.99V6.01z"/>
		<path class="st0" d="M10.99,13h5.98c0.55,0,0.99-0.45,0.99-0.99v-0.01c0-0.55-0.45-0.99-0.99-0.99h-5.98
			C10.45,11,10,11.45,10,11.99v0.01C10,12.55,10.45,13,10.99,13z"/>
		<path class="st0" d="M17.01,15h-5.98c-0.55,0-0.99,0.45-0.99,0.99v0.01c0,0.55,0.45,0.99,0.99,0.99h5.98
			c0.55,0,0.99-0.45,0.99-0.99v-0.01C18,15.45,17.55,15,17.01,15z"/>
		<path class="st0" d="M6.3,11.69c0.11,0,0.34-0.13,0.67-0.38v1.78c0,0.1,0.02,0.18,0.07,0.24c0.05,0.05,0.11,0.08,0.19,0.08
			c0.18,0,0.27-0.13,0.27-0.39v-2.24c0-0.09-0.02-0.17-0.06-0.22s-0.1-0.08-0.17-0.08c-0.06,0-0.1,0.01-0.13,0.04S7.07,10.59,7,10.7
			s-0.16,0.19-0.25,0.28s-0.22,0.16-0.38,0.23c-0.11,0.05-0.18,0.09-0.22,0.12s-0.06,0.08-0.06,0.15c0,0.06,0.02,0.11,0.06,0.15
			S6.24,11.69,6.3,11.69z"/>
		<path class="st0" d="M7.7,16.87H6.68c0.03-0.05,0.06-0.09,0.1-0.13c0.07-0.09,0.21-0.21,0.4-0.37s0.34-0.28,0.42-0.35
			c0.08-0.08,0.17-0.18,0.25-0.31c0.08-0.13,0.12-0.28,0.12-0.44c0-0.1-0.02-0.2-0.06-0.3s-0.09-0.18-0.16-0.25
			c-0.07-0.07-0.15-0.13-0.24-0.17c-0.14-0.06-0.31-0.09-0.51-0.09c-0.17,0-0.31,0.02-0.43,0.07s-0.22,0.11-0.3,0.19
			c-0.08,0.08-0.14,0.17-0.18,0.27s-0.06,0.19-0.06,0.28c0,0.07,0.02,0.13,0.06,0.18s0.1,0.06,0.16,0.06c0.07,0,0.13-0.02,0.17-0.07
			s0.07-0.11,0.1-0.2c0.03-0.09,0.05-0.14,0.07-0.16c0.1-0.15,0.23-0.22,0.4-0.22c0.08,0,0.16,0.02,0.22,0.05
			c0.07,0.04,0.12,0.09,0.16,0.15c0.04,0.07,0.06,0.14,0.06,0.22c0,0.08-0.02,0.16-0.06,0.24s-0.09,0.16-0.16,0.23
			s-0.16,0.15-0.27,0.23c-0.06,0.04-0.16,0.12-0.3,0.25c-0.14,0.13-0.3,0.28-0.47,0.46c-0.04,0.04-0.08,0.1-0.12,0.18
			c-0.04,0.08-0.05,0.14-0.05,0.19c0,0.07,0.03,0.14,0.08,0.19c0.05,0.05,0.13,0.08,0.23,0.08h1.44c0.09,0,0.15-0.02,0.19-0.07
			c0.04-0.04,0.06-0.1,0.06-0.16c0-0.07-0.03-0.13-0.08-0.17C7.88,16.89,7.8,16.87,7.7,16.87z"/>
	</g>
</g>
</svg>
