<?xml version="1.0" encoding="utf-8"?>
<!-- Generator: Adobe Illustrator 25.3.1, SVG Export Plug-In . SVG Version: 6.00 Build 0)  -->
<svg version="1.1" xmlns="http://www.w3.org/2000/svg" xmlns:xlink="http://www.w3.org/1999/xlink" x="0px" y="0px"
	 viewBox="0 0 24 24" style="enable-background:new 0 0 24 24;" xml:space="preserve">
<style type="text/css">
	.st0{fill:#C9C9C9;}
</style>
<g id="Camada_1">
</g>
<g id="Camada_3">
</g>
<g id="Camada_4">
</g>
<g id="Camada_2">
	<path class="st0" d="M20,0H4C1.8,0,0,1.8,0,4v16c0,2.2,1.8,4,4,4h16c2.2,0,4-1.8,4-4V4C24,1.8,22.2,0,20,0z M11,18c0,1.1-0.9,2-2,2
		H6c-1.1,0-2-0.9-2-2V6c0-1.1,0.9-2,2-2h3c1.1,0,2,0.9,2,2V18z M20,18c0,1.1-0.9,2-2,2h-3c-1.1,0-2-0.9-2-2V6c0-1.1,0.9-2,2-2h3
		c1.1,0,2,0.9,2,2V18z"/>
</g>
</svg>
