<?xml version="1.0" encoding="utf-8"?>
<!-- Generator: Adobe Illustrator 25.3.1, SVG Export Plug-In . SVG Version: 6.00 Build 0)  -->
<svg version="1.1" xmlns="http://www.w3.org/2000/svg" xmlns:xlink="http://www.w3.org/1999/xlink" x="0px" y="0px"
	 viewBox="0 0 24 24" style="enable-background:new 0 0 24 24;" xml:space="preserve">
<style type="text/css">
	.st0{fill:#C9C9C9;}
</style>
<g id="Camada_1">
</g>
<g id="Camada_3">
</g>
<g id="Camada_4">
</g>
<g id="Camada_2">
	<g>
		<path class="st0" d="M20,2h-1V0.98C19,0.44,18.56,0,18.02,0h-2.04C15.44,0,15,0.44,15,0.98V2H9V0.98C9,0.44,8.56,0,8.02,0H5.98
			C5.44,0,5,0.44,5,0.98V2H4C1.8,2,0,3.8,0,6v14c0,2.2,1.8,4,4,4h16c2.2,0,4-1.8,4-4V6C24,3.8,22.2,2,20,2z M14,14c0,1.1-0.9,2-2,2
			H6c-1.1,0-2-0.9-2-2V8c0-1.1,0.9-2,2-2h6c1.1,0,2,0.9,2,2V14z M20,15c0,0.55-0.45,1-1,1h-2c-0.55,0-1-0.45-1-1v-2
			c0-0.55,0.45-1,1-1h2c0.55,0,1,0.45,1,1V15z M20,9c0,0.55-0.45,1-1,1h-2c-0.55,0-1-0.45-1-1V7c0-0.55,0.45-1,1-1h2
			c0.55,0,1,0.45,1,1V9z"/>
		<path class="st0" d="M8.51,9.1C8.37,8.95,8.2,8.84,8.01,8.77S7.6,8.65,7.37,8.65c-0.36,0-0.66,0.09-0.92,0.26
			C6.2,9.08,6,9.33,5.87,9.66c-0.08,0.2-0.13,0.44-0.17,0.71c-0.04,0.28-0.05,0.59-0.05,0.93c0,0.27,0.02,0.51,0.05,0.74
			c0.03,0.23,0.08,0.44,0.16,0.63c0.14,0.35,0.35,0.62,0.62,0.81c0.27,0.2,0.58,0.29,0.93,0.29c0.3,0,0.57-0.07,0.82-0.22
			c0.25-0.15,0.45-0.35,0.6-0.62c0.12-0.22,0.21-0.46,0.25-0.73c0.05-0.27,0.07-0.59,0.07-0.96c0-0.69-0.09-1.22-0.26-1.6
			C8.78,9.43,8.66,9.25,8.51,9.1z M8.13,12.24C8.08,12.51,8,12.72,7.88,12.87c-0.12,0.15-0.28,0.22-0.49,0.22
			c-0.2,0-0.36-0.07-0.48-0.21c-0.12-0.14-0.2-0.35-0.25-0.62c-0.05-0.27-0.08-0.63-0.08-1.05c0-0.63,0.06-1.1,0.18-1.4
			c0.12-0.3,0.33-0.46,0.63-0.46c0.21,0,0.37,0.07,0.49,0.2c0.12,0.14,0.2,0.34,0.25,0.6c0.05,0.27,0.08,0.61,0.08,1.02
			C8.2,11.61,8.18,11.97,8.13,12.24z"/>
		<path class="st0" d="M11.54,8.66c-0.11,0-0.18,0.02-0.22,0.06c-0.04,0.04-0.12,0.15-0.25,0.33s-0.27,0.34-0.44,0.48
			s-0.39,0.28-0.66,0.41c-0.18,0.09-0.31,0.16-0.39,0.21c-0.07,0.05-0.11,0.14-0.11,0.26c0,0.1,0.04,0.19,0.11,0.26
			s0.16,0.11,0.25,0.11c0.2,0,0.59-0.22,1.17-0.67v3.11c0,0.18,0.04,0.32,0.13,0.41c0.08,0.09,0.2,0.14,0.34,0.14
			c0.31,0,0.47-0.23,0.47-0.69V9.19c0-0.16-0.04-0.29-0.11-0.39C11.75,8.71,11.66,8.66,11.54,8.66z"/>
	</g>
</g>
</svg>
