<?xml version="1.0" encoding="utf-8"?>
<!-- Generator: Adobe Illustrator 25.2.1, SVG Export Plug-In . SVG Version: 6.00 Build 0)  -->
<svg version="1.1" id="Camada_1" xmlns="http://www.w3.org/2000/svg" xmlns:xlink="http://www.w3.org/1999/xlink" x="0px" y="0px"
	 viewBox="0 0 24 24" style="enable-background:new 0 0 24 24;" xml:space="preserve">
<style type="text/css">
	.st0{fill:#C9C9C9;}
</style>
<path class="st0" d="M20,0H4C1.8,0,0,1.8,0,4v16c0,2.2,1.8,4,4,4h16c2.2,0,4-1.8,4-4V4C24,1.8,22.2,0,20,0z M12,19c0,0.5-0.5,1-1,1
	H5c-0.5,0-1-0.5-1-1v-8c0-0.5,0.5-1,1-1h6c0.5,0,1,0.5,1,1V19z M20,19c0,0.5-0.5,1-1,1h-4c-0.5,0-1-0.5-1-1v-2c0-0.5,0.5-1,1-1h4
	c0.5,0,1,0.5,1,1V19z M20,13c0,0.5-0.5,1-1,1h-4c-0.5,0-1-0.5-1-1v-2c0-0.5,0.5-1,1-1h4c0.5,0,1,0.5,1,1V13z M20,7c0,0.5-0.5,1-1,1
	H5C4.5,8,4,7.5,4,7V5c0-0.5,0.5-1,1-1h14c0.5,0,1,0.5,1,1V7z"/>
<g id="Camada_3">
</g>
<g id="Camada_4">
</g>
<g id="Camada_2_1_">
</g>
</svg>
