<?xml version="1.0" encoding="utf-8"?>
<!-- Generator: Adobe Illustrator 25.3.1, SVG Export Plug-In . SVG Version: 6.00 Build 0)  -->
<svg version="1.1" xmlns="http://www.w3.org/2000/svg" xmlns:xlink="http://www.w3.org/1999/xlink" x="0px" y="0px"
	 viewBox="0 0 24 24" style="enable-background:new 0 0 24 24;" xml:space="preserve">
<style type="text/css">
	.st0{fill:#C9C9C9;}
</style>
<g id="Camada_1">
</g>
<g id="Camada_3">
</g>
<g id="Camada_4">
</g>
<g id="Camada_2">
	<g>
		<path class="st0" d="M23.72,16.25h-0.56h-1.87c-0.28,0-0.44-0.22-0.36-0.48l1.15-4.04c0.08-0.26-0.09-0.48-0.36-0.48l0,0h-3l0,0
			c-0.28,0-0.56,0.22-0.64,0.48l-1.73,6.04c-0.08,0.26,0.09,0.48,0.36,0.48l0,0h1.75c0.27,0,0.47,0.22,0.44,0.5l-0.05,0.39h0
			l-0.58,4.62c-0.02,0.16,0.01,0.24,0.06,0.24c0.04,0,0.1-0.05,0.17-0.14l5.4-7.2C24.08,16.43,23.99,16.25,23.72,16.25z"/>
		<path class="st0" d="M16.16,11.18c0.32-1.12,1.4-1.93,2.56-1.93h3c0.34,0,0.67,0.08,0.97,0.21C21.59,8.08,19.9,7.2,18,7.2
			c-0.2,0-0.39,0.04-0.59,0.06C16.09,5.75,14.16,4.8,12,4.8c-3.15,0-5.82,2.02-6.8,4.84C5.07,9.63,4.94,9.6,4.8,9.6
			C2.15,9.6,0,11.75,0,14.4c0,2.65,2.15,4.8,4.8,4.8h9.94c-0.39-0.58-0.51-1.29-0.31-1.98L16.16,11.18z M14,12.5h-0.5v3
			c0,0.55-0.45,1-1,1h-1c-0.55,0-1-0.45-1-1v-3H10c-0.55,0-1-0.45-1-1c0-0.28,0.11-0.53,0.29-0.71v0l2-2v0
			C11.47,8.61,11.72,8.5,12,8.5s0.53,0.11,0.71,0.29v0l2,2v0C14.89,10.97,15,11.22,15,11.5C15,12.05,14.55,12.5,14,12.5z"/>
	</g>
</g>
</svg>
