<?xml version="1.0" encoding="utf-8"?>
<!-- Generator: Adobe Illustrator 25.3.1, SVG Export Plug-In . SVG Version: 6.00 Build 0)  -->
<svg version="1.1" xmlns="http://www.w3.org/2000/svg" xmlns:xlink="http://www.w3.org/1999/xlink" x="0px" y="0px"
	 viewBox="0 0 24 24" style="enable-background:new 0 0 24 24;" xml:space="preserve">
<style type="text/css">
	.st0{fill:#C9C9C9;}
</style>
<g id="Camada_1">
</g>
<g id="Camada_3">
</g>
<g id="Camada_4">
</g>
<g id="Camada_2">
	<g>
		<path class="st0" d="M23.72,16.25h-2.43c-0.28,0-0.44-0.22-0.36-0.48l1.15-4.04c0.02-0.07,0.02-0.13,0.01-0.19
			c-0.02-0.11-0.09-0.21-0.19-0.26c-0.05-0.02-0.11-0.04-0.18-0.04h-3c-0.28,0-0.56,0.22-0.64,0.48l-1.73,6.04
			c-0.08,0.26,0.09,0.48,0.36,0.48h1.75c0.27,0,0.47,0.22,0.44,0.5l-0.63,5.01c-0.03,0.27,0.07,0.32,0.24,0.1l5.4-7.2
			C24.08,16.43,23.99,16.25,23.72,16.25z"/>
		<path class="st0" d="M9,4H2C0.9,4,0,4.9,0,6v4c0,1.1,0.9,2,2,2h7c1.1,0,2-0.9,2-2V6C11,4.9,10.1,4,9,4z M7.99,8L6.33,9.66
			c-0.46,0.46-1.2,0.46-1.66,0L3.01,8c-0.46-0.46-0.46-1.2,0-1.66C3.2,6.16,3.43,6.07,3.67,6.03V6h3.48c0.3,0,0.6,0.11,0.83,0.34
			C8.44,6.8,8.44,7.54,7.99,8z"/>
		<path class="st0" d="M22,4h-7c-1.1,0-2,0.9-2,2v4c0,1.1,0.9,2,2,2h0.92l0.23-0.82c0.21-0.72,0.73-1.32,1.39-1.65L16.01,8
			c-0.46-0.46-0.46-1.2,0-1.66c0.18-0.18,0.42-0.27,0.66-0.31V6h3.48c0.3,0,0.6,0.11,0.83,0.34c0.46,0.46,0.46,1.2,0,1.66
			l-1.25,1.25h1.98c0.76,0,1.46,0.34,1.91,0.94c0.11,0.14,0.19,0.29,0.26,0.44C23.95,10.43,24,10.22,24,10V6C24,4.9,23.1,4,22,4z"/>
	</g>
</g>
</svg>
