<?xml version="1.0" encoding="utf-8"?>
<!-- Generator: Adobe Illustrator 25.3.1, SVG Export Plug-In . SVG Version: 6.00 Build 0)  -->
<svg version="1.1" xmlns="http://www.w3.org/2000/svg" xmlns:xlink="http://www.w3.org/1999/xlink" x="0px" y="0px"
	 viewBox="0 0 24 24" style="enable-background:new 0 0 24 24;" xml:space="preserve">
<style type="text/css">
	.st0{fill:#C9C9C9;}
</style>
<g id="Camada_1">
</g>
<g id="Camada_3">
</g>
<g id="Camada_4">
</g>
<g id="Camada_2">
	<g>
		<path class="st0" d="M12,0H4C1.8,0,0,1.8,0,4v16c0,2.2,1.8,4,4,4h8c2.2,0,4-1.8,4-4V4C16,1.8,14.2,0,12,0z M14,18.01
			c0,0.55-0.45,0.99-0.99,0.99H2.99C2.45,19,2,18.55,2,18.01v-0.01C2,17.45,2.45,17,2.99,17h10.01c0.55,0,0.99,0.45,0.99,0.99V18.01
			z M14,12.01c0,0.55-0.45,0.99-0.99,0.99H2.99C2.45,13,2,12.55,2,12.01v-0.01C2,11.45,2.45,11,2.99,11h10.01
			c0.55,0,0.99,0.45,0.99,0.99V12.01z M14,6.01C14,6.55,13.55,7,13.01,7H2.99C2.45,7,2,6.55,2,6.01V5.99C2,5.45,2.45,5,2.99,5h10.01
			C13.55,5,14,5.45,14,5.99V6.01z"/>
		<path class="st0" d="M23.49,10.76L21,8.27c-0.69-0.69-1.8-0.69-2.49,0C18.17,8.62,18,9.07,18,9.51v5.23h0.05
			c0.05,0.36,0.19,0.71,0.46,0.99c0.69,0.69,1.8,0.69,2.49,0l2.49-2.49C24.17,12.56,24.17,11.44,23.49,10.76z"/>
	</g>
</g>
</svg>
