<?xml version="1.0" encoding="utf-8"?>
<!-- Generator: Adobe Illustrator 25.2.1, SVG Export Plug-In . SVG Version: 6.00 Build 0)  -->
<svg version="1.1" id="Layer_1" xmlns="http://www.w3.org/2000/svg" xmlns:xlink="http://www.w3.org/1999/xlink" x="0px" y="0px"
	 viewBox="0 0 24 24" style="enable-background:new 0 0 24 24;" xml:space="preserve">
<style type="text/css">
	.st0{fill:#C9C9C9;}
</style>
<g id="Camada_1">
</g>
<g id="Camada_3">
</g>
<g id="Camada_4">
</g>
<g>
	<path class="st0" d="M19,4h-2H7H5C4.5,4,4,4.5,4,5v2v4.1c0,0.6,0.5,1,1,1h2c0.5,0,1-0.4,1-1V8.5C8,8.2,8.2,8,8.5,8H8v0h2v7.5
		c0,0.3-0.2,0.5-0.5,0.5H9c-0.5,0-1,0.5-1,1v2c0,0.5,0.5,1,1,1h6c0.5,0,1-0.5,1-1v-2c0-0.5-0.5-1-1-1h-0.5c-0.3,0-0.5-0.2-0.5-0.5V8
		h2v0h-0.5C15.8,8,16,8.2,16,8.5V11c0,0.5,0.5,1,1,1h2c0.5,0,1-0.5,1-1V7V5C20,4.5,19.5,4,19,4z"/>
</g>
</svg>
