<?xml version="1.0" encoding="utf-8"?>
<!-- Generator: Adobe Illustrator 25.3.1, SVG Export Plug-In . SVG Version: 6.00 Build 0)  -->
<svg version="1.1" xmlns="http://www.w3.org/2000/svg" xmlns:xlink="http://www.w3.org/1999/xlink" x="0px" y="0px"
	 viewBox="0 0 24 24" style="enable-background:new 0 0 24 24;" xml:space="preserve">
<style type="text/css">
	.st0{fill:#C9C9C9;}
</style>
<g id="Camada_1">
</g>
<g id="Camada_3">
</g>
<g id="Camada_4">
</g>
<g id="Camada_2">
	<path class="st0" d="M22,10h-4.35C16.83,7.67,14.61,6,12,6s-4.83,1.67-5.65,4H2c-1.1,0-2,0.9-2,2c0,1.1,0.9,2,2,2h4.35
		c0.82,2.33,3.04,4,5.65,4s4.83-1.67,5.65-4H22c1.1,0,2-0.9,2-2C24,10.9,23.1,10,22,10z M12,14c-1.1,0-2-0.9-2-2c0-1.1,0.9-2,2-2
		c1.1,0,2,0.9,2,2C14,13.1,13.1,14,12,14z"/>
</g>
</svg>
