<?xml version="1.0" encoding="utf-8"?>
<!-- Generator: Adobe Illustrator 25.3.1, SVG Export Plug-In . SVG Version: 6.00 Build 0)  -->
<svg version="1.1" xmlns="http://www.w3.org/2000/svg" xmlns:xlink="http://www.w3.org/1999/xlink" x="0px" y="0px"
	 viewBox="0 0 24 24" style="enable-background:new 0 0 24 24;" xml:space="preserve">
<style type="text/css">
	.st0{fill:#C9C9C9;}
</style>
<g id="Camada_1">
</g>
<g id="Camada_3">
</g>
<g id="Camada_4">
</g>
<g id="Camada_2">
	<g>
		<path class="st0" d="M8.73,10.11c-0.15-0.15-0.4-0.15-0.56,0l-2.92,2.92l-1.32-1.32c-0.15-0.15-0.4-0.15-0.56,0l-0.01,0.01
			c-0.15,0.15-0.15,0.4,0,0.56l1.61,1.61c0.15,0.15,0.4,0.15,0.56,0l3.21-3.21C8.89,10.52,8.89,10.27,8.73,10.11L8.73,10.11z"/>
		<path class="st0" d="M20,4H4C1.79,4,0,5.79,0,8v8c0,2.21,1.79,4,4,4h16c2.21,0,4-1.79,4-4V8C24,5.79,22.21,4,20,4z M10,15
			c0,0.55-0.45,1-1,1H3c-0.55,0-1-0.45-1-1V9c0-0.55,0.45-1,1-1h6c0.55,0,1,0.45,1,1V15z M12,8.5c0-0.08,0.02-0.13,0.04-0.18
			c0.01-0.01,0.02-0.02,0.03-0.03c0.02-0.02,0.04-0.04,0.07-0.04c0.01,0,0.03,0,0.04,0c0.05,0.01,0.11,0.03,0.17,0.09
			c0,0,0.01,0,0.01,0.01l0.66,0.66c0.84-1.12,2.14-1.88,3.63-1.99C16.56,7.17,16.5,7.33,16.5,7.5l0,1.56
			c-0.87,0.15-1.61,0.65-2.05,1.38l1.2,1.2c0,0,0,0,0,0l0,0c0.09,0.1,0.12,0.18,0.1,0.25c0,0-0.01,0-0.01,0.01
			c-0.01,0.03-0.04,0.05-0.08,0.07C15.62,11.99,15.57,12,15.5,12H14h-1.5c-0.22,0-0.4-0.14-0.47-0.33v0
			C12.01,11.61,12,11.56,12,11.5V8.5z M16.91,16.77c-0.01,0.01-0.01,0.02-0.02,0.03C16.8,16.92,16.66,17,16.5,17l-3,0
			c-0.27,0-0.34-0.16-0.15-0.35l0.66-0.66c-1.13-0.84-1.88-2.14-1.99-3.63c0.14,0.08,0.3,0.14,0.48,0.14h1.57
			c0.15,0.87,0.65,1.61,1.38,2.05l1.2-1.2C16.84,13.16,17,13.23,17,13.5l0,3C17,16.6,16.96,16.69,16.91,16.77z M17.35,10.65
			c-0.06,0.06-0.12,0.09-0.17,0.09c-0.01,0-0.03,0-0.04,0c-0.03,0-0.05-0.02-0.07-0.04c-0.01-0.01-0.02-0.02-0.03-0.03
			C17.02,10.63,17,10.58,17,10.5c0,0,0,0,0,0L17,9h0l0-1.5c0-0.22,0.15-0.4,0.34-0.47c0,0,0,0,0,0C17.39,7.02,17.44,7,17.5,7l3,0
			c0.08,0,0.13,0.01,0.17,0.04c0.11,0.06,0.11,0.18-0.03,0.32c0,0,0,0,0,0l-0.67,0.67c1.11,0.84,1.87,2.13,1.98,3.61
			c-0.14-0.07-0.29-0.13-0.46-0.13h-1.55c-0.15-0.87-0.67-1.61-1.39-2.06l-1.2,1.2C17.35,10.65,17.35,10.65,17.35,10.65z M22,15.5
			c0,0.28-0.16,0.34-0.35,0.15l-0.67-0.67c-0.84,1.12-2.13,1.88-3.61,1.99c0.08-0.14,0.13-0.3,0.13-0.46l0-1.55
			c0.87-0.15,1.61-0.67,2.06-1.39l-1.2-1.2C18.16,12.16,18.23,12,18.5,12H20h1.5c0.1,0,0.19,0.04,0.27,0.09
			c0.01,0.01,0.02,0.01,0.04,0.02c0.08,0.06,0.13,0.13,0.17,0.23v0v0c0.02,0.05,0.03,0.1,0.03,0.16V15.5z"/>
	</g>
</g>
</svg>
