<?xml version="1.0" encoding="utf-8"?>
<!-- Generator: Adobe Illustrator 25.3.1, SVG Export Plug-In . SVG Version: 6.00 Build 0)  -->
<svg version="1.1" xmlns="http://www.w3.org/2000/svg" xmlns:xlink="http://www.w3.org/1999/xlink" x="0px" y="0px"
	 viewBox="0 0 24 24" style="enable-background:new 0 0 24 24;" xml:space="preserve">
<style type="text/css">
	.st0{fill:#C9C9C9;}
</style>
<g id="Camada_1">
</g>
<g id="Camada_3">
</g>
<g id="Camada_4">
</g>
<g id="Camada_2">
	<path class="st0" d="M22,8H2c-1.1,0-2,0.9-2,2v4c0,1.1,0.9,2,2,2h20c1.1,0,2-0.9,2-2v-4C24,8.9,23.1,8,22,8z M14,14H4
		c-1.1,0-2-0.9-2-2c0-1.1,0.9-2,2-2h10c1.1,0,2,0.9,2,2C16,13.1,15.1,14,14,14z M21.79,12.81c0.27,0.27,0.27,0.72,0,0.99
		s-0.72,0.27-0.99,0l-0.8-0.8l-0.8,0.8c-0.27,0.27-0.72,0.27-0.99,0s-0.27-0.72,0-0.99l0.8-0.8l-0.8-0.8
		c-0.27-0.27-0.27-0.72,0-0.99c0.27-0.27,0.72-0.27,0.99,0l0.8,0.8l0.8-0.8c0.27-0.27,0.72-0.27,0.99,0c0.27,0.27,0.27,0.72,0,0.99
		l-0.8,0.8L21.79,12.81z"/>
</g>
</svg>
